
<svg width="500" height="600" viewBox="0 0 500 600" fill="none" xmlns="http://www.w3.org/2000/svg">
  <path d="M227.83,25.31c-8.11,1.8-18.02,6.61-29.72,14.42c-7.21,4.5-14.42,10.81-14.42,12.61c0,0.9,2.7,1.8,6.31,1.8c3.6,0,7.21,0.9,7.21,1.8c0,0.9,1.8,1.8,3.6,1.8c2.7,0,3.6,0.9,2.7,2.7c-0.9,1.8-7.21,3.6-13.51,3.6c-6.31,0-13.51,0.9-15.32,2.7c-2.7,1.8-4.5,1.8-6.31-0.9c-1.8-1.8-5.41-2.7-7.21-2.7c-3.6,0-3.6,0-1.8,3.6c0.9,2.7,0,6.31-2.7,8.11c-2.7,2.7-4.5,2.7-5.41,0.9c-0.9-1.8-7.21-2.7-15.32-2.7h-13.51v5.41c0,9.01-9.01,14.42-17.12,9.91c-3.6-1.8-7.21-2.7-7.21-1.8c0,0.9-2.7,2.7-6.31,3.6s-6.31,2.7-6.31,3.6c0,0.9-5.41,2.7-12.61,3.6c-7.21,0.9-12.61,2.7-12.61,3.6c0,0.9-6.31,2.7-14.42,3.6c-18.92,1.8-18.92,1.8-21.62,11.71c-0.9,4.5-3.6,9.01-5.41,9.91c-1.8,0.9-3.6,3.6-3.6,6.31s-0.9,5.41-2.7,6.31c-1.8,0.9-2.7,4.5-2.7,9.01c0,5.41-0.9,8.11-3.6,9.01c-1.8,0.9-3.6,3.6-3.6,6.31c0,2.7-0.9,4.5-1.8,4.5c-0.9,0-1.8,0.9-1.8,1.8c0,0.9,0.9,1.8,1.8,1.8c0.9,0,1.8,1.8,1.8,4.5c0,2.7,0.9,5.41,2.7,7.21c1.8,1.8,2.7,4.5,2.7,6.31c0,3.6,2.7,4.5,4.5,1.8c2.7-4.5,7.21-0.9,5.41,4.5c-0.9,2.7-0.9,5.41,0,5.41c1.8,0.9,5.41-4.5,5.41-7.21c0-0.9,0.9-1.8,2.7-1.8c1.8,0,2.7,0.9,2.7,1.8c0,0.9,2.7,3.6,6.31,5.41c4.5,2.7,9.01,3.6,14.42,2.7c7.21-0.9,7.21-0.9,7.21,3.6c0,4.5-0.9,5.41-5.41,5.41c-4.5,0-6.31,0.9-7.21,4.5c-0.9,3.6,0,5.41,5.41,8.11c3.6,1.8,6.31,4.5,6.31,6.31c0,2.7,9.91,5.41,16.22,5.41c0.9,0,2.7,0.9,3.6,2.7c1.8,2.7,1.8,2.7,1.8-0.9c0-1.8,0.9-3.6,1.8-3.6s1.8,1.8,1.8,3.6c0,1.8,0.9,3.6,1.8,3.6c0.9,0,1.8-0.9,1.8-2.7c0-0.9,1.8-1.8,4.5-1.8c2.7,0,5.41,0.9,6.31,2.7c0.9,1.8,3.6,2.7,8.11,2.7c6.31-0.9,6.31-0.9,6.31,2.7c0,1.8,0.9,4.5,2.7,5.41c1.8,1.8,2.7,0.9,2.7-1.8c0-3.6,0.9-4.5,9.91-5.41c9.91-0.9,9.91-0.9,7.21-3.6c-1.8-1.8-0.9-3.6,0.9-5.41c3.6-2.7,5.41-2.7,14.42-0.9c9.01,1.8,9.91,1.8,9.91,5.41c0,2.7,0.9,3.6,3.6,2.7c1.8-0.9,4.5-0.9,5.41,0c0.9,0.9,7.21,1.8,13.51,1.8c12.61,0,13.51,0.9,10.81,7.21c-0.9,1.8-1.8,5.41-1.8,7.21s-0.9,3.6-1.8,3.6c-0.9,0-1.8,2.7-1.8,5.41c0,2.7-0.9,5.41-2.7,6.31c-1.8,0.9-2.7,3.6-2.7,6.31c0,6.31-4.5,18.92-9.01,25.22c-5.41,7.21-3.6,13.51,2.7,13.51c2.7,0,6.31,0.9,8.11,2.7c1.8,1.8,3.6,2.7,4.5,2.7c0.9-0.9,4.5,9.91,3.6,11.71c-0.9,0.9-3.6,0-5.41-2.7c-3.6-3.6-6.31-3.6-18.02-1.8c-7.21,0.9-15.32,2.7-18.02,3.6c-2.7,0.9-5.41,3.6-5.41,5.41c0,3.6-6.31,3.6-6.31-0.9c0-0.9-1.8-1.8-3.6-1.8c-1.8,0-3.6,0.9-3.6,1.8c0,0.9-0.9,1.8-2.7,1.8c-0.9,0-1.8-1.8-1.8-3.6c0-4.5-5.41-4.5-6.31,0c-0.9,1.8-1.8,3.6-2.7,3.6s-1.8-0.9-1.8-1.8c0-0.9-0.9-1.8-2.7-1.8c-0.9,0-1.8,0.9-1.8,1.8c0,1.8-9.01,9.91-11.71,10.81c-0.9,0-2.7,2.7-3.6,5.41c-0.9,2.7-2.7,5.41-3.6,5.41s-1.8,0.9-1.8,1.8c0,0.9-0.9,1.8-1.8,1.8c-1.8,0-1.8,0.9-0.9,3.6c0.9,1.8,0.9,3.6,0,3.6s-8.11,5.41-16.22,12.61c-18.02,17.12-18.92,21.62-5.41,29.72c6.31,3.6,9.01,3.6,14.42-0.9c3.6-2.7,7.21-5.41,7.21-6.31c0-0.9-2.7-4.5-6.31-8.11c-6.31-5.41-6.31-5.41-1.8-5.41c2.7,0,7.21-1.8,9.91-3.6c2.7-1.8,7.21-3.6,9.91-3.6c2.7,0,6.31-1.8,7.21-3.6c0.9-1.8,3.6-3.6,5.41-3.6c1.8,0,5.41-0.9,8.11-2.7c2.7-1.8,7.21-2.7,9.91-2.7c2.7,0,5.41-0.9,6.31-1.8c0.9-0.9,5.41-2.7,9.91-3.6c5.41-0.9,9.01-2.7,9.01-3.6c0-0.9,6.31-3.6,14.42-6.31c8.11-2.7,16.22-5.41,17.12-6.31c0.9-0.9,4.5-1.8,7.21-1.8c3.6,0,6.31-0.9,6.31-2.7c0-1.8-2.7-1.8-12.61,0c-21.62,3.6-22.52,3.6-22.52-0.9c0-3.6,0.9-3.6,10.81-3.6c9.91,0,11.71-0.9,15.32-4.5c2.7-2.7,4.5-5.41,4.5-6.31c0-0.9,3.6-2.7,8.11-3.6c8.11-1.8,9.01-1.8,12.61,1.8c2.7,2.7,4.5,3.6,7.21,2.7c5.41-1.8,5.41-0.9,5.41,4.5c0,4.5,0.9,5.41,5.41,5.41c5.41,0,5.41,0,5.41,9.01v9.91h7.21c5.41,0,7.21,0.9,7.21,2.7c0,1.8,2.7,2.7,9.91,2.7c9.91,0,9.91,0,9.91,5.41c0,3.6,0.9,5.41,2.7,5.41c1.8,0,2.7,1.8,2.7,3.6c0,2.7-0.9,3.6-3.6,3.6c-2.7,0-3.6,0.9-3.6,3.6s0.9,3.6,6.31,3.6c6.31,0,6.31,0,6.31,3.6c0,2.7,0.9,3.6,2.7,3.6c1.8,0,2.7,0.9,2.7,1.8c0,0.9-0.9,1.8-2.7,1.8c-1.8,0-2.7,1.8-2.7,3.6c0,2.7,0.9,3.6,2.7,3.6c1.8,0,2.7,0.9,2.7,1.8c0,0.9,1.8,1.8,3.6,1.8c2.7,0,3.6,0.9,3.6,5.41c0,3.6,0.9,5.41,1.8,5.41s1.8-0.9,1.8-1.8c0-1.8,1.8-1.8,9.01-0.9c9.01,0.9,9.01,0.9,9.01-2.7c0-2.7,0.9-3.6,7.21-3.6c6.31,0,7.21-0.9,7.21-3.6c0-2.7,0.9-3.6,6.31-3.6c6.31,0,6.31,0,6.31-3.6c0-2.7,0.9-3.6,3.6-3.6c2.7,0,3.6-0.9,3.6-3.6c0-2.7,0.9-3.6,3.6-3.6c2.7,0,3.6-0.9,3.6-9.01c0-5.41,0.9-9.91,1.8-11.71c1.8-1.8,1.8-1.8,1.8,2.7c0,3.6,0.9,5.41,3.6,5.41c2.7,0,3.6-0.9,3.6-3.6c0-1.8,0.9-3.6,1.8-3.6c0.9,0,1.8,0.9,1.8,1.8c0,0.9,1.8,1.8,3.6,1.8c2.7,0,3.6-0.9,3.6-3.6c0-1.8,0.9-3.6,1.8-3.6c0.9,0,1.8,0.9,1.8,1.8c0,0.9,1.8,1.8,3.6,1.8c1.8,0,3.6,0.9,3.6,1.8c0,0.9,1.8,1.8,3.6,1.8c1.8,0,3.6,0.9,3.6,1.8c0,0.9,1.8,1.8,3.6,1.8c1.8,0,3.6,0.9,3.6,1.8c0,1.8,14.42,1.8,22.52,0c1.8-0.9,3.6,0,5.41,0.9c1.8,1.8,1.8,2.7-0.9,5.41c-1.8,1.8-2.7,4.5-2.7,6.31c0,1.8-0.9,3.6-2.7,3.6c-1.8,0-2.7,1.8-2.7,3.6c0,1.8-0.9,3.6-1.8,3.6s-1.8,1.8-1.8,3.6c0,1.8-0.9,3.6-1.8,3.6s-1.8,0.9-1.8,2.7c0,1.8-0.9,2.7-1.8,2.7s-1.8,1.8-1.8,3.6c0,1.8-0.9,3.6-1.8,3.6c-0.9,0-1.8,1.8-1.8,3.6c0,2.7-0.9,3.6-3.6,3.6c-2.7,0-3.6,0.9-3.6,2.7c0,1.8-0.9,2.7-1.8,2.7s-1.8,0.9-1.8,1.8c0,0.9-1.8,1.8-3.6,1.8c-1.8,0-3.6,0.9-3.6,1.8c0,0.9-1.8,1.8-3.6,1.8c-1.8,0-3.6,0.9-3.6,1.8c0,0.9-1.8,1.8-3.6,1.8c-1.8,0-3.6,0.9-3.6,2.7c0,0.9-2.7,1.8-5.41,1.8c-2.7,0-5.41,0.9-5.41,1.8c0,0.9-2.7,1.8-5.41,1.8c-3.6,0-6.31,0.9-7.21,2.7c-0.9,1.8-3.6,2.7-8.11,2.7c-3.6,0-6.31,0.9-6.31,1.8c0,0.9-4.5,1.8-9.91,1.8s-9.91,0.9-9.91,1.8c0,1.8-9.01,1.8-37.83,1.8s-37.83,0-37.83,1.8c0,1.8-1.8,1.8-16.22,1.8s-16.22,0-16.22,1.8c0,0.9-1.8,1.8-4.5,1.8c-2.7,0-4.5,0.9-4.5,1.8c0,0.9,1.8,1.8,4.5,1.8c2.7,0,5.41,0.9,6.31,1.8c0.9,0.9,5.41,1.8,9.91,1.8c4.5,0,8.11,0.9,8.11,1.8c0,0.9,3.6,1.8,9.01,1.8c5.41,0,9.01,0.9,9.01,1.8c0,0.9,1.8,1.8,4.5,1.8c2.7,0,4.5,0.9,4.5,1.8c0,1.8,0.9,1.8,4.5,0c2.7-0.9,5.41-1.8,6.31-1.8c0.9,0,4.5-1.8,7.21-3.6c4.5-2.7,6.31-2.7,11.71-1.8c3.6,0.9,8.11,1.8,9.91,1.8c1.8,0,4.5,1.8,6.31,3.6c2.7,2.7,5.41,3.6,11.71,3.6c5.41,0,7.21-0.9,7.21-2.7c0-1.8,0.9-2.7,2.7-2.7c1.8,0,2.7,0.9,2.7,2.7s0.9,2.7,2.7,2.7c1.8,0,2.7,0.9,2.7,1.8c0,0.9,0.9,1.8,2.7,1.8c0.9,0,1.8,1.8,1.8,3.6c0,2.7,0.9,3.6,2.7,3.6c1.8,0,2.7,0.9,2.7,1.8c0,0.9,1.8,1.8,3.6,1.8c1.8,0,3.6,0.9,3.6,1.8c0,0.9,0.9,1.8,2.7,1.8c1.8,0,2.7,0.9,2.7,1.8c0,0.9,1.8,1.8,3.6,1.8c2.7,0,3.6,0.9,3.6,3.6c0,1.8,0.9,3.6,1.8,3.6c0.9,0,1.8,1.8,1.8,3.6c0,1.8,0.9,3.6,1.8,3.6c0.9,0,1.8,1.8,1.8,3.6c0,2.7,0.9,3.6,3.6,3.6c2.7,0,3.6,0.9,3.6,2.7c0,1.8,0.9,2.7,2.7,2.7c0.9,0,1.8,1.8,1.8,3.6c0,1.8,0.9,3.6,1.8,3.6c0.9,0,1.8,1.8,1.8,3.6c0,2.7,0.9,3.6,2.7,3.6c1.8,0,2.7,0.9,2.7,3.6c0,2.7,0.9,3.6,2.7,3.6c1.8,0,2.7,0.9,2.7,2.7c0,1.8,0.9,2.7,1.8,2.7c0.9,0,1.8,2.7,1.8,6.31c0,3.6,0.9,7.21,1.8,7.21c0.9,0,1.8,2.7,1.8,5.41c0,3.6,0.9,6.31,2.7,7.21c1.8,0.9,2.7,3.6,2.7,6.31c0,2.7,0.9,5.41,1.8,6.31c0.9,0.9,1.8,3.6,1.8,6.31c0,2.7,0.9,5.41,1.8,6.31c0.9,0.9,1.8,4.5,1.8,9.01c0,3.6,0.9,7.21,1.8,8.11c0.9,0.9,1.8,8.11,1.8,15.32c0,8.11,0.9,14.42,2.7,16.22c1.8,1.8,2.7,5.41,2.7,10.81c0,4.5,0.9,9.01,1.8,9.91c0.9,0.9,1.8,9.01,1.8,17.12s0.9,17.12,2.7,19.82c1.8,3.6,1.8,6.31,0,11.71c-0.9,3.6-3.6,12.61-5.41,20.72c-1.8,7.21-4.5,16.22-5.41,19.82c-0.9,3.6-2.7,9.01-3.6,12.61c-0.9,3.6-2.7,9.01-3.6,11.71c-0.9,2.7-2.7,6.31-3.6,9.01c-0.9,2.7-2.7,7.21-3.6,9.91s-2.7,5.41-3.6,6.31c-0.9,0.9-3.6,5.41-6.31,9.91c-2.7,4.5-5.41,9.01-6.31,9.91c-0.9,0.9-2.7,3.6-3.6,6.31c-0.9,2.7-2.7,5.41-3.6,6.31c-1.8,0.9-8.11,9.01-15.32,18.02c-7.21,9.01-14.42,17.12-16.22,18.02c-1.8,0.9-5.41,4.5-8.11,8.11c-2.7,3.6-6.31,7.21-8.11,8.11c-1.8,0.9-5.41,4.5-8.11,7.21c-2.7,3.6-6.31,6.31-8.11,7.21c-1.8,0.9-4.5,2.7-5.41,3.6c-1.8,1.8-10.81,8.11-25.22,17.12c-2.7,1.8-6.31,3.6-7.21,3.6c-0.9,0.9-4.5,2.7-7.21,3.6s-7.21,2.7-9.91,3.6c-2.7,0.9-7.21,2.7-9.01,3.6c-2.7,0.9-5.41,1.8-6.31,1.8s-3.6,0.9-5.41,1.8c-1.8,0.9-7.21,2.7-11.71,3.6c-4.5,0.9-11.71,2.7-16.22,3.6c-4.5,0.9-13.51,1.8-20.72,1.8c-8.11,0-16.22-0.9-19.82-1.8c-2.7-0.9-9.01-2.7-13.51-3.6c-4.5-0.9-10.81-2.7-13.51-3.6c-2.7-0.9-8.11-2.7-11.71-3.6c-3.6-1.8-8.11-3.6-10.81-4.5c-5.41-1.8-10.81-4.5-13.51-6.31c-0.9-0.9-4.5-2.7-7.21-4.5c-10.81-5.41-28.82-18.92-36.03-27.03c-1.8-1.8-4.5-4.5-5.41-5.41c-6.31-6.31-16.22-18.02-21.62-25.22c-3.6-4.5-7.21-9.91-8.11-11.71c-0.9-1.8-3.6-5.41-5.41-9.01c-1.8-2.7-4.5-7.21-5.41-9.91c-0.9-2.7-3.6-9.01-5.41-13.51c-1.8-4.5-4.5-13.51-5.41-19.82c-1.8-6.31-3.6-18.02-4.5-25.22c-0.9-8.11-0.9-15.32,0-18.92c0.9-3.6,1.8-9.91,1.8-14.42c0-4.5,0.9-11.71,1.8-14.42c0.9-3.6,1.8-9.01,1.8-11.71c0-3.6,0.9-7.21,1.8-9.01c0.9-1.8,2.7-6.31,4.5-9.91c1.8-3.6,3.6-9.01,4.5-11.71c0.9-3.6,2.7-7.21,3.6-8.11c0.9-0.9,2.7-3.6,3.6-6.31s2.7-5.41,3.6-6.31c0.9-0.9,3.6-5.41,6.31-9.91c2.7-4.5,6.31-9.01,7.21-9.91c0.9-0.9,4.5-4.5,7.21-9.01c3.6-3.6,7.21-7.21,8.11-7.21c0.9-0.9,2.7-1.8,3.6-2.7c1.8-0.9,4.5-3.6,6.31-5.41c1.8-1.8,4.5-3.6,5.41-3.6c0.9,0,3.6-1.8,5.41-3.6c1.8-1.8,4.5-3.6,6.31-3.6c1.8,0,3.6-0.9,4.5-1.8c0.9-0.9,5.41-2.7,9.91-3.6c5.41-0.9,9.01-2.7,9.01-3.6c0-0.9,1.8-1.8,3.6-1.8c1.8,0,4.5-0.9,5.41-2.7c0.9-1.8,3.6-2.7,6.31-2.7c2.7,0,5.41-0.9,5.41-1.8c0-0.9,4.5-1.8,9.91-1.8c7.21,0,9.91-0.9,9.91-2.7c0-1.8,0.9-2.7,3.6-2.7c2.7,0,3.6-0.9,3.6-3.6c0-2.7-0.9-3.6-2.7-3.6s-2.7-0.9-2.7-1.8c0-0.9,1.8-1.8,4.5-1.8c4.5,0,4.5,0,0.9-3.6c-2.7-1.8-5.41-3.6-6.31-3.6c-0.9,0-6.31-3.6-11.71-9.01c-7.21-5.41-9.91-9.01-9.91-13.51c0-5.41-0.9-6.31-5.41-8.11c-2.7-0.9-7.21-4.5-9.01-9.01c-1.8-4.5-4.5-8.11-5.41-8.11s-4.5-3.6-7.21-8.11c-2.7-3.6-6.31-7.21-8.11-8.11c-1.8-0.9-4.5-3.6-5.41-6.31c-1.8-2.7-5.41-7.21-9.01-9.91c-3.6-2.7-6.31-5.41-6.31-6.31s-1.8-2.7-4.5-3.6c-2.7-0.9-7.21-4.5-9.91-8.11c-3.6-3.6-8.11-6.31-12.61-7.21c-7.21-0.9-7.21-0.9-5.41-5.41c0.9-3.6,0.9-5.41-1.8-7.21c-1.8-0.9-3.6-3.6-3.6-6.31c0-2.7-0.9-4.5-1.8-4.5c-0.9,0-1.8-0.9-1.8-1.8c0-0.9,0.9-1.8,1.8-1.8c0.9,0,1.8-0.9,1.8-2.7c0-0.9,0.9-2.7,2.7-2.7c1.8-0.9,2.7-2.7,2.7-4.5s0.9-3.6,1.8-3.6c0.9,0,1.8,0.9,1.8,1.8c0,1.8,5.41,1.8,11.71,0c1.8,0,2.7-0.9,1.8-2.7c-0.9-1.8-0.9-1.8,0.9,0c0.9,0.9,4.5,1.8,7.21,1.8s5.41,0.9,5.41,1.8c0,0.9,1.8,1.8,3.6,1.8c1.8,0,3.6,0.9,3.6,1.8c0,0.9,1.8,1.8,3.6,1.8c1.8,0,3.6,0.9,3.6,1.8c0,0.9,0.9,1.8,1.8,1.8c0.9,0,2.7,0.9,3.6,2.7c1.8,1.8,1.8,2.7-0.9,3.6c-1.8,0.9-2.7,2.7-2.7,4.5c0,1.8-0.9,3.6-2.7,3.6c-1.8,0-2.7,1.8-2.7,3.6c0,1.8-0.9,3.6-1.8,3.6c-0.9,0-1.8,2.7-1.8,6.31c0,3.6-0.9,6.31-1.8,6.31c-0.9,0-1.8,1.8-1.8,3.6c0,1.8-0.9,3.6-1.8,3.6s-1.8,1.8-1.8,3.6s-0.9,3.6-1.8,3.6c-0.9,0-1.8,1.8-1.8,3.6c0,1.8-0.9,3.6-1.8,3.6c-0.9,0-1.8,1.8-1.8,3.6c0,1.8-0.9,3.6-1.8,3.6c-0.9,0-1.8,1.8-1.8,3.6c0,1.8-0.9,3.6-1.8,3.6c-0.9,0-1.8,1.8-1.8,3.6c0,1.8-0.9,3.6-1.8,3.6c-0.9,0-1.8,1.8-1.8,3.6s-0.9,3.6-1.8,3.6c-0.9,0-1.8,1.8-1.8,3.6s-0.9,3.6-1.8,3.6c-0.9,0-1.8,1.8-1.8,3.6c0,1.8-0.9,3.6-2.7,3.6c-1.8,0-2.7,0.9-2.7,2.7c0,1.8-0.9,2.7-2.7,2.7c-1.8,0-2.7,0.9-2.7,1.8c0,0.9-1.8,1.8-3.6,1.8c-1.8,0-3.6,0.9-3.6,1.8c0,0.9-1.8,1.8-3.6,1.8c-1.8,0-3.6,0.9-3.6,1.8c0,0.9-1.8,1.8-3.6,1.8c-1.8,0-3.6,0.9-3.6,1.8c0,0.9-1.8,1.8-3.6,1.8c-1.8,0-3.6,0.9-3.6,1.8c0,0.9-1.8,1.8-3.6,1.8c-1.8,0-3.6,0.9-3.6,1.8c0,0.9-1.8,1.8-4.5,1.8c-2.7,0-4.5,0.9-4.5,2.7c0,1.8-0.9,2.7-3.6,2.7c-1.8,0-3.6,0.9-3.6,1.8c0,0.9-2.7,1.8-6.31,1.8c-3.6,0-6.31,0.9-6.31,1.8c0,0.9-2.7,1.8-6.31,1.8c-3.6,0-6.31,0.9-6.31,1.8c0,0.9-3.6,1.8-9.01,1.8c-5.41,0-9.01,0.9-9.01,1.8c0,0.9-4.5,1.8-10.81,1.8c-8.11,0-10.81,0.9-10.81,2.7c0,1.8-1.8,1.8-18.02,1.8s-18.02,0-18.02-1.8s-0.9-1.8-9.91-1.8c-9.01,0-9.91-0.9-9.91-2.7c0-1.8-0.9-2.7-2.7-2.7c-1.8,0-2.7-0.9-2.7-1.8c0-0.9-1.8-1.8-3.6-1.8c-1.8,0-3.6-0.9-3.6-1.8c0-0.9,0.9-1.8,1.8-1.8c0.9,0,1.8-1.8,1.8-3.6c0-1.8,0.9-3.6,1.8-3.6c0.9,0,1.8-0.9,1.8-1.8c0-1.8-1.8-1.8-10.81-0.9c-8.11,0.9-10.81,0.9-11.71-0.9c-0.9-0.9-1.8-3.6-2.7-5.41c-0.9-1.8-3.6-3.6-7.21-3.6s-6.31-0.9-7.21-2.7c-0.9-1.8-3.6-2.7-6.31-2.7s-5.41-0.9-5.41-1.8c0-1.8-2.7-1.8-12.61-1.8c-9.91,0-13.51,0.9-16.22,2.7c-1.8,1.8-3.6,3.6-3.6,4.5s-0.9,1.8-2.7,1.8c-1.8,0-2.7-0.9-2.7-2.7c0-1.8-0.9-2.7-2.7-2.7c-1.8,0-2.7-0.9-2.7-1.8c0-0.9-0.9-1.8-1.8-1.8s-1.8-0.9-1.8-1.8c0-2.7-9.01-7.21-16.22-7.21c-3.6,0-7.21-0.9-7.21-2.7c0-1.8-1.8-1.8-9.01-1.8c-4.5,0-9.01-0.9-9.91-1.8c-0.9-0.9-2.7-2.7-3.6-3.6c-0.9-0.9-4.5-1.8-8.11-1.8c-4.5,0-6.31-0.9-6.31-2.7c0-0.9-1.8-2.7-4.5-3.6c-2.7-0.9-4.5-2.7-4.5-4.5c0-1.8-0.9-3.6-1.8-3.6c-1.8,0-3.6-5.41-3.6-11.71c0-1.8,3.6-4.5,9.01-6.31c7.21-2.7,9.01-2.7,9.91-0.9c0.9,1.8,6.31,2.7,16.22,2.7c9.01,0,15.32,0.9,15.32,1.8c0,0.9,5.41,1.8,12.61,1.8c8.11,0,12.61-0.9,12.61-1.8c0-0.9,1.8-1.8,4.5-1.8c2.7,0,4.5,0.9,4.5,1.8c0,0.9,2.7,1.8,5.41,1.8c3.6,0,6.31,0.9,7.21,2.7c0.9,1.8,3.6,2.7,7.21,2.7c3.6,0,6.31,0.9,6.31,1.8c0,0.9,3.6,1.8,8.11,1.8c4.5,0,8.11,0.9,8.11,1.8c0,0.9,2.7,1.8,6.31,1.8c3.6,0,6.31,0.9,6.31,1.8c0,0.9,2.7,1.8,5.41,1.8c3.6,0,5.41-0.9,5.41-1.8c0-0.9,2.7-1.8,5.41-1.8c2.7,0,5.41-0.9,5.41-1.8c0-0.9,3.6-1.8,7.21-1.8c5.41,0,7.21-0.9,7.21-2.7c0-1.8,0.9-2.7,2.7-2.7c1.8,0,2.7-0.9,2.7-1.8c0-0.9,1.8-1.8,3.6-1.8c1.8,0,3.6-0.9,3.6-1.8c0-0.9,0.9-1.8,1.8-1.8c0.9,0,1.8-1.8,1.8-3.6c0-1.8,0.9-3.6,1.8-3.6c0.9,0,1.8-0.9,1.8-2.7c0-1.8,0.9-2.7,1.8-2.7c0.9,0,1.8-1.8,1.8-4.5c0-2.7,0.9-4.5,1.8-4.5c0.9,0,1.8-2.7,1.8-5.41c0-3.6-0.9-6.31-2.7-8.11c-1.8-1.8-2.7-4.5-2.7-8.11c0-2.7-0.9-7.21-1.8-9.91c-1.8-2.7-1.8-5.41,0-7.21c0.9-0.9,1.8-5.41,1.8-9.01c0-5.41-0.9-7.21-2.7-7.21c-1.8,0-2.7-0.9-2.7-2.7c0-1.8-0.9-2.7-2.7-2.7c-1.8,0-2.7-0.9-2.7-2.7c0-1.8-0.9-2.7-2.7-2.7c-1.8,0-2.7,1.8-2.7,4.5c0,2.7-0.9,6.31-1.8,8.11c-1.8,3.6-1.8,3.6,0.9,3.6c1.8,0,2.7,0.9,2.7,2.7c0,1.8,0.9,2.7,2.7,2.7c1.8,0,2.7,0.9,2.7,1.8c0,0.9-0.9,1.8-1.8,1.8c-0.9,0-1.8,1.8-1.8,4.5c0,2.7-0.9,4.5-2.7,4.5c-1.8,0-2.7,0.9-2.7,2.7c0,1.8-0.9,2.7-1.8,2.7s-1.8,0.9-1.8,1.8c0,0.9-0.9,1.8-1.8,1.8s-1.8,0.9-1.8,1.8c0,0.9-1.8,1.8-3.6,1.8c-1.8,0-3.6,0.9-3.6,1.8c0,0.9-0.9,1.8-1.8,1.8c-0.9,0-1.8-0.9-1.8-1.8c0-0.9-0.9-1.8-1.8-1.8c-0.9,0-1.8,0.9-1.8,1.8c0,0.9-0.9,1.8-1.8,1.8c-1.8,0-1.8,0,0-1.8c0.9-0.9,1.8-3.6,1.8-5.41c0-1.8,0.9-3.6,1.8-3.6c0.9-0.9,1.8-3.6,1.8-6.31c0-2.7,0.9-5.41,1.8-5.41c0.9-0.9,1.8-3.6,1.8-6.31c0-2.7,0.9-5.41,1.8-5.41c0.9,0,1.8-0.9,1.8-1.8c0-0.9,0.9-1.8,1.8-1.8c0.9,0,1.8,0.9,1.8,1.8c0,0.9,0.9,1.8,1.8,1.8c0.9,0,1.8-0.9,1.8-1.8c0-0.9-0.9-1.8-1.8-1.8c-0.9,0-1.8-0.9-1.8-2.7c0-1.8-0.9-2.7-1.8-2.7c-0.9,0-1.8-1.8-1.8-3.6s-0.9-3.6-1.8-3.6c-0.9,0-1.8,0.9-1.8,1.8c0,0.9-0.9,1.8-1.8,1.8c-0.9,0-1.8-0.9-1.8-1.8c0-0.9,0.9-1.8,1.8-1.8c0.9,0,1.8-0.9,1.8-1.8c0-0.9,0.9-1.8,1.8-1.8c0.9,0,1.8,0.9,1.8,1.8c0,0.9,0.9,1.8,1.8,1.8c0.9,0,1.8-0.9,1.8-2.7c0-1.8,0.9-2.7,2.7-2.7c1.8,0,2.7-0.9,2.7-2.7c0-1.8,0.9-2.7,2.7-2.7c1.8,0,2.7-0.9,2.7-2.7c0-1.8,0.9-2.7,3.6-2.7c2.7,0,3.6-0.9,3.6-3.6c0-2.7,0.9-3.6,3.6-3.6c1.8,0,3.6-0.9,3.6-1.8c0-0.9,1.8-1.8,3.6-1.8c1.8,0,3.6-0.9,3.6-1.8c0-0.9,2.7-1.8,6.31-1.8c3.6,0,6.31-0.9,6.31-1.8c0-0.9,1.8-1.8,4.5-1.8c2.7,0,4.5-0.9,4.5-1.8c0-0.9,4.5-1.8,9.91-1.8c5.41,0,9.91-0.9,9.91-1.8c0-0.9,4.5-1.8,9.91-1.8c6.31,0,9.91-0.9,9.91-1.8c0-0.9,2.7-1.8,5.41-1.8c2.7,0,5.41-0.9,5.41-1.8c0-0.9,1.8-1.8,3.6-1.8c1.8,0,3.6-0.9,3.6-1.8c0-0.9,0.9-1.8,1.8-1.8c0.9,0,1.8,0.9,1.8,1.8c0,0.9,0.9,1.8,1.8,1.8c0.9,0,1.8-0.9,1.8-1.8c0-1.8-1.8-1.8-8.11-0.9c-6.31,0.9-9.01,0.9-10.81-0.9c-1.8-0.9-3.6-2.7-3.6-3.6c0-1.8,8.11-1.8,27.93,0c30.62,1.8,26.12,1.8,41.44,0c9.91-0.9,19.82-1.8,21.62-1.8c1.8,0,5.41-0.9,7.21-1.8c1.8-0.9,6.31-1.8,9.91-1.8c3.6,0,7.21-0.9,8.11-1.8c0.9-0.9,5.41-2.7,9.91-3.6c4.5-0.9,9.01-2.7,9.91-3.6c0.9-0.9,4.5-1.8,7.21-1.8c3.6,0,6.31-0.9,6.31-1.8c0-1.8,8.11-4.5,9.91-2.7c0.9,0.9,2.7,0,4.5-2.7c1.8-2.7,4.5-4.5,5.41-4.5c1.8,0,4.5-1.8,6.31-3.6c1.8-1.8,4.5-3.6,5.41-3.6c0.9,0,3.6-1.8,5.41-3.6c1.8-1.8,4.5-3.6,6.31-3.6c1.8,0,3.6-0.9,3.6-1.8c0-0.9,2.7-2.7,5.41-3.6c3.6-0.9,5.41-2.7,5.41-4.5c0-1.8,1.8-2.7,4.5-2.7c2.7,0,4.5-0.9,4.5-2.7c0-1.8,0.9-2.7,2.7-2.7c1.8,0,2.7-0.9,2.7-1.8c0-0.9,0.9-1.8,1.8-1.8c0.9,0,1.8-1.8,1.8-3.6s0.9-3.6,1.8-3.6c0.9,0,1.8-1.8,1.8-3.6c0-1.8,0.9-3.6,1.8-3.6c0.9,0,1.8-1.8,1.8-3.6c0-1.8,0.9-3.6,1.8-3.6c0.9,0,1.8-1.8,1.8-3.6c0-1.8,0.9-3.6,1.8-3.6c0.9,0,1.8-1.8,1.8-3.6c0-1.8,0.9-3.6,1.8-3.6c0.9,0,1.8-1.8,1.8-3.6c0-1.8,0.9-3.6,1.8-3.6c0.9,0,1.8-1.8,1.8-3.6c0-1.8,0.9-3.6,1.8-3.6c0.9,0,1.8-1.8,1.8-3.6c0-1.8,0.9-3.6,1.8-3.6c0.9,0,1.8-2.7,1.8-6.31s0.9-6.31,1.8-6.31c0.9,0,1.8-1.8,1.8-3.6c0-1.8,0.9-5.41,2.7-7.21c1.8-2.7,2.7-6.31,2.7-9.91c0-3.6,0.9-6.31,1.8-6.31c1.8,0,1.8,0,0.9,1.8c-0.9,0.9-0.9,3.6,0,5.41c0.9,1.8,0.9,3.6,0,3.6c-0.9,0-1.8,3.6-1.8,8.11c0,4.5-0.9,8.11-1.8,8.11c-0.9,0-1.8,1.8-1.8,3.6c0,1.8-0.9,3.6-1.8,3.6c-0.9,0-1.8,1.8-1.8,3.6c0,1.8-0.9,3.6-1.8,3.6c-0.9,0-1.8,1.8-1.8,3.6c0,1.8-0.9,3.6-1.8,3.6c-0.9,0-1.8,1.8-1.8,3.6c0,1.8-0.9,3.6-2.7,3.6c-1.8,0-2.7,0.9-2.7,2.7c0,1.8-0.9,2.7-2.7,2.7c-1.8,0-2.7,0.9-2.7,2.7c0,1.8-0.9,2.7-2.7,2.7c-1.8,0-2.7,0.9-2.7,1.8c0,0.9-1.8,1.8-3.6,1.8c-1.8,0-3.6,0.9-3.6,1.8c0,0.9-2.7,1.8-5.41,1.8c-3.6,0-5.41,0.9-5.41,2.7c0,1.8-0.9,2.7-2.7,2.7c-1.8,0-2.7,0.9-2.7,1.8c0,0.9-1.8,1.8-3.6,1.8c-1.8,0-3.6,0.9-3.6,1.8c0,0.9-1.8,1.8-3.6,1.8c-1.8,0-3.6,0.9-3.6,1.8c0,0.9-1.8,1.8-3.6,1.8c-1.8,0-3.6,0.9-3.6,1.8c0,1.8-9.01,5.41-14.42,5.41c-1.8,0-3.6,0.9-3.6,1.8c0,0.9-0.9,1.8-2.7,1.8c-0.9,0-2.7,0.9-3.6,1.8c-0.9,0.9-5.41,2.7-9.91,3.6c-4.5,0.9-9.01,1.8-9.91,2.7c-0.9,0.9-4.5,1.8-8.11,1.8c-3.6,0-7.21,0.9-8.11,1.8c-0.9,0.9-5.41,1.8-9.91,1.8c-4.5,0-9.01,0.9-9.91,1.8c-0.9,0.9-9.01,1.8-18.02,1.8c-9.01,0-17.12,0.9-18.02,1.8c-2.7,2.7-41.44,2.7-44.14,0c-0.9-0.9-9.01-1.8-18.02-1.8c-8.11,0-16.22-0.9-17.12-1.8c-0.9-0.9-4.5-1.8-7.21-1.8c-2.7,0-6.31-0.9-7.21-1.8c-0.9-0.9-5.41-1.8-9.91-1.8c-4.5,0-9.01-0.9-9.91-1.8c-0.9-0.9-4.5-1.8-8.11-1.8c-3.6,0-8.11-0.9-9.91-2.7c-1.8-0.9-5.41-1.8-7.21-1.8c-1.8,0-4.5-0.9-5.41-1.8c-0.9-0.9-4.5-1.8-8.11-1.8c-3.6,0-6.31-0.9-6.31-1.8c0-0.9-1.8-1.8-3.6-1.8c-1.8,0-3.6-0.9-3.6-1.8c0-0.9-1.8-1.8-3.6-1.8c-2.7,0-3.6-0.9-3.6-2.7c0-1.8-0.9-2.7-2.7-2.7c-1.8,0-2.7-0.9-2.7-1.8c0-1.8-5.41-5.41-9.01-5.41c-0.9,0-2.7-1.8-3.6-3.6c-1.8-2.7-3.6-3.6-8.11-3.6c-3.6,0-6.31-0.9-6.31-1.8c0-0.9-0.9-1.8-1.8-1.8s-1.8-0.9-1.8-1.8c0-0.9-0.9-1.8-2.7-1.8c-1.8,0-2.7-0.9-2.7-1.8c0-0.9-0.9-1.8-1.8-1.8c-0.9,0-1.8-0.9-1.8-1.8c0-0.9-0.9-1.8-1.8-1.8c-1.8,0-1.8-0.9,0-3.6c0.9-1.8,2.7-3.6,3.6-3.6c0.9,0,1.8-0.9,1.8-2.7c0-1.8,0.9-2.7,2.7-2.7c1.8,0,2.7-0.9,2.7-1.8c0-0.9,0.9-1.8,2.7-1.8c1.8,0,2.7-0.9,2.7-1.8c0-0.9,0.9-1.8,1.8-1.8c0.9,0,1.8-1.8,1.8-3.6c0-2.7,0.9-3.6,3.6-3.6c2.7,0,3.6-0.9,3.6-3.6c0-2.7,0.9-3.6,3.6-3.6c1.8,0,3.6-0.9,3.6-1.8c0-0.9,1.8-1.8,3.6-1.8c1.8,0,3.6-0.9,3.6-1.8c0-0.9,1.8-1.8,3.6-1.8c1.8,0,3.6-0.9,3.6-1.8c0-0.9,1.8-1.8,4.5-1.8c2.7,0,4.5-0.9,4.5-1.8c0-0.9,2.7-1.8,6.31-1.8c3.6,0,6.31-0.9,6.31-1.8c0-0.9,3.6-1.8,8.11-1.8c5.41,0,9.01-0.9,10.81-2.7c1.8-1.8,2.7-1.8,4.5-0.9c0.9,0.9,3.6,1.8,6.31,1.8c3.6,0,4.5-0.9,4.5-2.7c0-2.7,0-2.7,1.8-0.9c0.9,1.8,3.6,2.7,7.21,2.7c3.6,0,6.31,0.9,6.31,1.8c0,0.9,3.6,1.8,8.11,1.8s8.11,0.9,8.11,1.8c0,0.9,6.31,1.8,13.51,1.8s13.51,0.9,13.51,1.8c0,0.9,6.31,1.8,14.42,1.8c9.01,0,14.42,0.9,14.42,1.8c0,0.9,9.91,1.8,21.62,1.8s21.62,0.9,21.62,1.8c0,0.9-4.5,1.8-10.81,1.8c-8.11,0-10.81,0.9-10.81,2.7c0,1.8-0.9,2.7-2.7,2.7c-1.8,0-2.7,0.9-2.7,1.8c0,0.9-0.9,1.8-2.7,1.8c-0.9,0-1.8-0.9-1.8-1.8c0-1.8-0.9-1.8-4.5,0c-2.7,0.9-5.41,2.7-6.31,4.5c-0.9,1.8-4.5,2.7-9.01,2.7c-4.5,0-6.31,0.9-6.31,2.7c0,2.7-0.9,2.7-16.22,2.7c-14.42,0-16.22,0-17.12-2.7c-0.9-1.8-2.7-2.7-5.41-2.7c-2.7,0-4.5,0.9-4.5,2.7c0,2.7-2.7,3.6-3.6,1.8c-0.9-1.8-5.41-1.8-6.31,0c-0.9,0.9-0.9,1.8,0,2.7s0.9,1.8-0.9,0.9c-0.9-0.9-2.7-0.9-3.6,0c-0.9,0.9-1.8,0.9-1.8,0c0-0.9-1.8-1.8-3.6-1.8c-2.7,0-3.6-0.9-3.6-2.7c0-1.8-0.9-2.7-1.8-2.7c-0.9,0-1.8-0.9-1.8-1.8c0-0.9,0.9-1.8,1.8-1.8c0.9,0,1.8-0.9,1.8-1.8c0-0.9,1.8-1.8,3.6-1.8c1.8,0,3.6-0.9,3.6-1.8c0-1.8-0.9-1.8-8.11,0c-9.01,1.8-22.52,1.8-30.62,0c-3.6-0.9-6.31-0.9-7.21,0c-0.9,0.9-2.7,0.9-3.6,0c-0.9-0.9-1.8-0.9-1.8,0c0,0.9,0.9,1.8,1.8,1.8c0.9,0,1.8,1.8,1.8,3.6c0,3.6,0,3.6-6.31,1.8c-3.6-0.9-9.91-1.8-13.51-1.8c-5.41,0-7.21-0.9-7.21-2.7c0-1.8-1.8-2.7-5.41-2.7c-3.6,0-5.41-0.9-5.41-1.8c0-1.8-1.8-1.8-9.91-0.9c-5.41,0.9-11.71,1.8-13.51,1.8c-3.6,0-3.6,0-1.8-1.8c0.9-0.9,2.7-1.8,3.6-1.8c0.9,0,1.8-0.9,1.8-1.8c0-1.8-1.8-1.8-9.01-1.8c-4.5,0-9.01-0.9-9.91-1.8c-0.9-0.9-4.5-1.8-8.11-2.7c-3.6-0.9-8.11-2.7-9.91-3.6c-1.8-1.8-5.41-2.7-11.71-2.7c-9.01,0-9.01,0-9.01-2.7c0-1.8-0.9-2.7-3.6-2.7c-1.8,0-3.6-0.9-3.6-1.8c0-0.9-1.8-1.8-3.6-1.8c-1.8,0-3.6-0.9-3.6-1.8c0-0.9-1.8-1.8-3.6-1.8s-3.6-0.9-3.6-1.8c0-0.9-0.9-1.8-2.7-1.8c-1.8,0-2.7-0.9-2.7-1.8c0-0.9-0.9-1.8-2.7-1.8c-0.9,0-1.8-0.9-1.8-1.8c0-1.8-11.71-9.91-14.42-9.91c-0.9,0-2.7-0.9-3.6-2.7c-0.9-1.8-3.6-2.7-5.41-2.7c-1.8,0-3.6-0.9-3.6-2.7c0-1.8-0.9-2.7-3.6-2.7c-1.8,0-3.6-0.9-3.6-2.7c0-1.8-0.9-2.7-3.6-2.7c-1.8,0-3.6-0.9-3.6-1.8c0-0.9-0.9-1.8-2.7-1.8c-1.8,0-2.7-0.9-2.7-2.7c0-1.8-0.9-2.7-2.7-2.7c-1.8,0-2.7-0.9-2.7-2.7c0-1.8-0.9-2.7-1.8-2.7c-0.9,0-1.8-0.9-1.8-1.8c0-0.9-0.9-1.8-1.8-1.8c-0.9,0-1.8-1.8-1.8-3.6c0-1.8-0.9-3.6-1.8-3.6c-0.9,0-1.8-1.8-1.8-3.6c0-2.7-0.9-3.6-2.7-3.6c-1.8,0-2.7-0.9-2.7-3.6c0-2.7-0.9-3.6-2.7-3.6c-1.8,0-2.7-0.9-2.7-2.7c0-1.8-0.9-2.7-1.8-2.7c-0.9,0-1.8-1.8-1.8-3.6c0-1.8-0.9-3.6-1.8-3.6c-0.9,0-1.8-1.8-1.8-3.6c0-1.8-0.9-4.5-1.8-6.31c-1.8-1.8-1.8-2.7-0.9-2.7c0.9,0,1.8-1.8,1.8-4.5c0-2.7-0.9-4.5-1.8-4.5c-0.9,0-1.8-1.8-1.8-4.5c0-2.7-0.9-4.5-1.8-4.5c-0.9,0-1.8-2.7-1.8-5.41c0-5.41,0-5.41,5.41-3.6c2.7,0.9,5.41,1.8,5.41,2.7c0,0.9-1.8,1.8-4.5,1.8c-4.5,0-4.5,0-4.5,3.6c0,2.7,0.9,3.6,2.7,3.6c1.8,0,2.7,0.9,2.7,1.8c0,1.8,1.8,1.8,8.11,0.9c5.41-0.9,9.91-2.7,11.71-4.5c1.8-1.8,3.6-2.7,4.5-2.7c0.9,0,1.8-0.9,1.8-1.8c0-1.8,1.8-1.8,9.01-0.9c9.01,0.9,9.01,0.9,9.01-1.8s0-2.7,5.41-2.7c2.7,0,5.41,0.9,5.41,1.8c0,0.9,3.6,1.8,9.01,1.8c5.41,0,9.01,0.9,9.01,1.8c0,1.8,1.8,1.8,8.11,0.9c4.5-0.9,9.91-1.8,10.81-1.8c0.9,0,1.8-0.9,1.8-1.8c0-1.8,1.8-1.8,16.22-0.9c9.01,0.9,17.12,1.8,18.02,1.8c0.9,0,1.8,0.9,1.8,1.8c0,0.9,4.5,1.8,9.91,1.8s9.91,0.9,9.91,1.8c0,0.9,3.6,1.8,8.11,1.8c4.5,0,8.11,0.9,8.11,1.8c0,0.9,1.8,1.8,3.6,1.8c1.8,0,3.6,0.9,3.6,1.8c0,0.9,1.8,1.8,3.6,1.8c1.8,0,3.6,0.9,3.6,1.8c0,0.9,1.8,1.8,3.6,1.8c1.8,0,3.6,0.9,3.6,1.8c0,0.9,0.9,1.8,1.8,1.8c0.9,0,1.8,0.9,1.8,1.8c0,0.9,0.9,1.8,1.8,1.8c0.9,0,1.8,0.9,1.8,1.8c0,1.8,9.01,8.11,12.61,8.11c0.9,0,2.7,0.9,3.6,1.8c0.9,0.9,3.6,2.7,6.31,3.6c5.41,1.8,7.21,1.8,13.51-0.9c4.5-1.8,9.01-1.8,39.63-1.8c35.13,0,35.13,0,36.03,2.7c0.9,1.8,0,3.6-3.6,5.41c-2.7,1.8-5.41,3.6-6.31,3.6c-0.9,0-1.8,0.9-1.8,1.8c0,1.8-5.41,3.6-14.42,5.41c-6.31,0.9-9.01,0-13.51-3.6c-2.7-1.8-5.41-3.6-6.31-3.6c-0.9,0-1.8-0.9-1.8-1.8c0-0.9-0.9-1.8-1.8-1.8c-0.9,0-1.8,0.9-1.8,1.8c0,1.8-5.41,1.8-22.52,0.9c-12.61-0.9-23.42-0.9-24.32,0c-0.9,0.9-2.7,0.9-3.6,0c-3.6-2.7-13.51-0.9-13.51,2.7c0,1.8-0.9,2.7-6.31,2.7c-3.6,0-6.31-0.9-6.31-1.8s-1.8-1.8-4.5-1.8c-2.7,0-4.5,0.9-4.5,1.8c0,0.9-2.7,1.8-7.21,1.8c-3.6,0-7.21-0.9-7.21-1.8c0-0.9-0.9-1.8-2.7-1.8c-1.8,0-2.7,0.9-2.7,1.8c0,0.9-1.8,1.8-3.6,1.8c-1.8,0-3.6-0.9-3.6-1.8c0-0.9-0.9-1.8-2.7-1.8c-1.8,0-2.7,0.9-2.7,2.7c0,1.8-1.8,2.7-9.01,3.6c-4.5,0.9-9.91,1.8-10.81,1.8c-0.9,0-1.8,1.8-1.8,3.6c0,2.7-0.9,3.6-4.5,3.6c-2.7,0-4.5,0.9-4.5,1.8c0,0.9-2.7,1.8-5.41,1.8c-2.7,0-5.41,0.9-5.41,1.8c0,0.9-1.8,1.8-3.6,1.8c-1.8,0-3.6-0.9-3.6-1.8c0-0.9-0.9-1.8-2.7-1.8c-1.8,0-2.7,0.9-2.7,1.8c0,0.9-1.8,1.8-3.6,1.8c-1.8,0-3.6-0.9-3.6-1.8c0-0.9-0.9-1.8-1.8-1.8s-1.8,0.9-1.8,1.8c0,0.9-1.8,1.8-3.6,1.8c-2.7,0-3.6-0.9-3.6-2.7c0-1.8-0.9-2.7-3.6-2.7c-1.8,0-3.6-0.9-3.6-1.8c0-0.9-0.9-1.8-2.7-1.8c-1.8,0-2.7,0.9-2.7,1.8c0,0.9-0.9,1.8-1.8,1.8c-0.9,0-1.8-0.9-1.8-1.8c0-0.9,0.9-1.8,1.8-1.8c0.9,0,1.8-1.8,1.8-3.6c0-1.8-0.9-3.6-1.8-3.6c-0.9,0-1.8-0.9-1.8-1.8c0-0.9-0.9-1.8-2.7-1.8c-1.8,0-2.7-0.9-2.7-1.8c0-0.9-1.8-1.8-3.6-1.8c-1.8,0-3.6-0.9-3.6-2.7c0-1.8-0.9-2.7-1.8-2.7c-0.9,0-1.8-0.9-1.8-1.8s-0.9-1.8-1.8-1.8c-1.8,0-1.8-0.9-0.9-1.8c0.9-0.9,0.9-1.8,0-2.7c-0.9-0.9-1.8-0.9-1.8,0c0,0.9-1.8,1.8-3.6,1.8c-1.8,0-3.6-0.9-3.6-1.8c0-0.9-0.9-1.8-2.7-1.8c-1.8,0-2.7-0.9-2.7-1.8c0-0.9-0.9-1.8-1.8-1.8c-0.9,0-1.8-0.9-1.8-1.8c0-0.9-0.9-1.8-2.7-1.8c-1.8,0-2.7-0.9-2.7-1.8c0-0.9-0.9-1.8-2.7-1.8c-0.9,0-1.8-0.9-1.8-1.8c0-1.8-1.8-1.8-8.11-1.8c-4.5,0-8.11-0.9-8.11-1.8c0-0.9-1.8-1.8-3.6-1.8c-1.8,0-3.6-0.9-3.6-1.8c0-0.9,1.8-1.8,4.5-1.8c3.6,0,4.5-0.9,4.5-2.7c0-2.7,0-2.7,3.6-0.9c1.8,0.9,6.31,1.8,9.01,1.8c2.7,0,5.41,0.9,5.41,1.8c0,0.9,0.9,1.8,2.7,1.8c1.8,0,2.7,0.9,2.7,1.8c0,0.9,0.9,1.8,1.8,1.8c0.9,0,1.8,0.9,1.8,1.8c0,0.9,0.9,1.8,1.8,1.8c0.9,0,1.8,0.9,1.8,1.8c0,0.9,0.9,1.8,1.8,1.8c0.9,0,1.8,0.9,1.8,2.7c0,1.8,0.9,2.7,1.8,2.7c1.8,0,1.8,8.11,0,12.61c-0.9,0.9-1.8,3.6-1.8,5.41c0,2.7-0.9,4.5-2.7,4.5c-1.8,0-2.7-0.9-2.7-1.8c0-0.9-0.9-1.8-1.8-1.8c-0.9,0-1.8-0.9-1.8-1.8c0-0.9-0.9-1.8-1.8-1.8c-0.9,0-1.8-1.8-1.8-3.6c0-1.8-0.9-3.6-1.8-3.6c-0.9,0-1.8-1.8-1.8-3.6c0-1.8-0.9-3.6-1.8-3.6c-0.9,0-1.8-0.9-1.8-1.8c0-0.9-0.9-1.8-1.8-1.8c-0.9,0-1.8-0.9-1.8-1.8c0-0.9-0.9-1.8-2.7-1.8c-1.8,0-2.7-0.9-2.7-1.8c0-0.9-1.8-1.8-3.6-1.8c-1.8,0-3.6-0.9-3.6-1.8c0-0.9-1.8-1.8-3.6-1.8c-1.8,0-3.6-0.9-3.6-1.8c0-0.9-1.8-1.8-3.6-1.8c-1.8,0-3.6-0.9-3.6-1.8c0-0.9-1.8-1.8-4.5-1.8c-2.7,0-4.5-0.9-4.5-1.8c0-0.9-2.7-1.8-6.31-1.8c-3.6,0-6.31-0.9-6.31-1.8c0-0.9-3.6-1.8-7.21-1.8c-6.31,0-7.21-0.9-7.21-2.7c0-1.8-0.9-2.7-3.6-2.7c-1.8,0-3.6-0.9-3.6-1.8c0-0.9-1.8-1.8-3.6-1.8c-1.8,0-3.6-0.9-3.6-1.8c0-0.9-0.9-1.8-1.8-1.8c-0.9,0-1.8-0.9-1.8-1.8c0-0.9-0.9-1.8-2.7-1.8c-1.8,0-2.7-0.9-2.7-1.8c0-0.9-0.9-1.8-2.7-1.8c-1.8,0-2.7-0.9-2.7-1.8c0-0.9-0.9-1.8-2.7-1.8c-1.8,0-2.7-0.9-2.7-1.8c0-0.9-0.9-1.8-1.8-1.8c-0.9,0-1.8-1.8-1.8-3.6c0-1.8-0.9-3.6-1.8-3.6c-0.9,0-1.8-0.9-1.8-1.8c0-0.9-0.9-1.8-1.8-1.8s-1.8-1.8-1.8-3.6c0-1.8-0.9-3.6-1.8-3.6c-0.9,0-1.8-1.8-1.8-3.6c0-1.8-0.9-3.6-1.8-3.6c-0.9,0-1.8-1.8-1.8-4.5c0-2.7-0.9-4.5-1.8-4.5c-0.9,0-1.8-1.8-1.8-3.6c0-1.8-0.9-3.6-1.8-3.6c-0.9,0-1.8-0.9-1.8-2.7c0-0.9-0.9-2.7-1.8-3.6c-0.9-0.9-1.8-4.5-1.8-7.21c0-2.7-0.9-5.41-1.8-6.31c-0.9-0.9-1.8-5.41-1.8-9.91c0-5.41,0.9-9.01,1.8-9.91c0.9-0.9,1.8-3.6,1.8-6.31c0-2.7,0.9-5.41,1.8-6.31c0.9-0.9,1.8-3.6,1.8-6.31c0-2.7,0.9-5.41,1.8-6.31c0.9-0.9,1.8-3.6,1.8-5.41c0-1.8,0.9-4.5,1.8-5.41c0.9-0.9,1.8-3.6,1.8-5.41c0-1.8,0.9-4.5,1.8-5.41c0.9-0.9,1.8-3.6,1.8-5.41c0-1.8,0.9-4.5,1.8-5.41c0.9-0.9,1.8-3.6,1.8-5.41c0-1.8,0.9-4.5,2.7-5.41c1.8-0.9,2.7-3.6,2.7-5.41c0-1.8,0.9-3.6,1.8-3.6c0.9,0,1.8-1.8,1.8-3.6c0-1.8,0.9-3.6,1.8-3.6c0.9,0,1.8-1.8,1.8-3.6c0-1.8,0.9-3.6,1.8-3.6c0.9,0,1.8-0.9,1.8-1.8c0-0.9,0.9-1.8,1.8-1.8c0.9,0,2.7-1.8,3.6-3.6c0.9-1.8,2.7-3.6,3.6-3.6c0.9,0,1.8-0.9,1.8-1.8c0-0.9,0.9-1.8,2.7-1.8c1.8,0,2.7-0.9,2.7-1.8c0-0.9,0.9-1.8,1.8-1.8c0.9,0,2.7-0.9,3.6-2.7c0.9-1.8,2.7-2.7,4.5-2.7c1.8,0,3.6-0.9,3.6-1.8c0-0.9,2.7-1.8,5.41-1.8c2.7,0,5.41-0.9,5.41-1.8c0-0.9,2.7-1.8,5.41-1.8c2.7,0,5.41-0.9,5.41-1.8c0-0.9,5.41-1.8,12.61-1.8c7.21,0,12.61-0.9,12.61-1.8c0-0.9,3.6-1.8,7.21-1.8c4.5,0,7.21-0.9,7.21-2.7c0-2.7,0.9-2.7,9.91-2.7c9.01,0,9.91,0,9.91,2.7c0,1.8,0.9,2.7,2.7,2.7c1.8,0,2.7-0.9,2.7-2.7c0-1.8,0.9-2.7,5.41-2.7c4.5,0,5.41,0.9,5.41,2.7c0,1.8,0.9,2.7,2.7,2.7c1.8,0,2.7-0.9,2.7-2.7c0-1.8,0.9-2.7,2.7-2.7c0.9,0,2.7-0.9,3.6-2.7c0.9-1.8,2.7-2.7,4.5-2.7s3.6-0.9,3.6-1.8c0-0.9,1.8-1.8,3.6-1.8c1.8,0,3.6-0.9,3.6-1.8c0-0.9,1.8-1.8,3.6-1.8c1.8,0,3.6-0.9,3.6-1.8c0-0.9,1.8-1.8,4.5-1.8c2.7,0,4.5-0.9,4.5-1.8c0-0.9,2.7-1.8,5.41-1.8c2.7,0,5.41-0.9,5.41-1.8c0-0.9,3.6-1.8,7.21-1.8c4.5,0,7.21-0.9,7.21-1.8c0-0.9,8.11-1.8,18.02-1.8c14.42,0,18.02,0.9,18.02,2.7c0,1.8,0.9,2.7,2.7,2.7c2.7,0,2.7,0,1.8,3.6c-0.9,2.7-1.8,5.41-2.7,5.41c-0.9,0-1.8,0.9-1.8,1.8c0,2.7-9.91,10.81-13.51,10.81c-0.9,0-1.8,0.9-1.8,1.8c0,0.9-0.9,1.8-1.8,1.8c-1.8,0-9.91,3.6-16.22,8.11c-1.8,0.9-4.5,2.7-6.31,3.6c-1.8,0.9-3.6,2.7-4.5,3.6c-0.9,0.9-3.6,1.8-6.31,1.8c-2.7,0-5.41,0.9-5.41,1.8c0,0.9-2.7,1.8-6.31,1.8c-3.6,0-6.31,0.9-6.31,1.8c0,0.9-2.7,1.8-6.31,1.8c-3.6,0-6.31,0.9-6.31,1.8c0,0.9-2.7,1.8-6.31,1.8c-3.6,0-6.31,0.9-6.31,1.8c0,0.9-0.9,1.8-1.8,1.8c-0.9,0-1.8-0.9-1.8-1.8c0-0.9,0.9-1.8,1.8-1.8c0.9,0,1.8-0.9,1.8-1.8c0-0.9,1.8-1.8,3.6-1.8c1.8,0,3.6-0.9,3.6-1.8c0-0.9,2.7-1.8,6.31-1.8c3.6,0,6.31-0.9,6.31-1.8c0-0.9,2.7-1.8,7.21-1.8c4.5,0,7.21-0.9,7.21-1.8c0-2.7,7.21-7.21,12.61-7.21c1.8,0,3.6-0.9,3.6-1.8c0-0.9,1.8-1.8,3.6-1.8c1.8,0,3.6-0.9,3.6-1.8c0-0.9,1.8-1.8,3.6-1.8c1.8,0,3.6-0.9,3.6-1.8c0-0.9,0.9-1.8,1.8-1.8c0.9,0,2.7-0.9,3.6-2.7c0.9-1.8,2.7-2.7,4.5-2.7c1.8,0,3.6-0.9,3.6-1.8c0-0.9,0.9-1.8,1.8-1.8c1.8,0,3.6-2.7,3.6-5.41c0-0.9,0.9-1.8,1.8-1.8c0.9,0,1.8-0.9,1.8-1.8c0-0.9-3.6-1.8-9.01-1.8c-4.5,0-9.01-0.9-9.91-1.8c-2.7-2.7-23.42-0.9-23.42,1.8c0,0.9-3.6,1.8-8.11,1.8s-8.11,0.9-8.11,1.8c0,0.9-3.6,1.8-8.11,1.8s-8.11,0.9-8.11,1.8c0,0.9-4.5,1.8-9.91,1.8c-5.41,0-9.91,0.9-9.91,1.8c0,0.9-3.6,1.8-7.21,1.8c-3.6,0-7.21,0.9-7.21,1.8c0,0.9-2.7,1.8-5.41,1.8c-2.7,0-5.41,0.9-5.41,1.8c0,0.9-1.8,1.8-3.6,1.8c-1.8,0-3.6,0.9-3.6,1.8c0,0.9-1.8,1.8-3.6,1.8c-1.8,0-3.6,0.9-3.6,1.8c0,0.9-0.9,1.8-2.7,1.8c-1.8,0-2.7,0.9-2.7,1.8c0,0.9-0.9,1.8-1.8,1.8c-0.9,0-2.7,0.9-3.6,2.7c-1.8,2.7-2.7,2.7-13.51,2.7c-9.01,0-11.71-0.9-11.71-2.7c0-1.8-0.9-2.7-2.7-2.7c-1.8,0-2.7-0.9-2.7-1.8c0-0.9-0.9-1.8-1.8-1.8c-0.9,0-1.8-0.9-1.8-1.8c0-0.9-0.9-1.8-1.8-1.8c-2.7,0-9.91-7.21-9.91-9.91c0-0.9-0.9-1.8-1.8-1.8c-0.9,0-1.8-1.8-1.8-3.6c0-1.8-0.9-3.6-1.8-3.6c-0.9,0-1.8-0.9-1.8-1.8c0-0.9-0.9-1.8-1.8-1.8c-0.9,0-1.8-1.8-1.8-3.6c0-1.8-0.9-3.6-1.8-3.6c-0.9,0-1.8-2.7-1.8-5.41c0-3.6-0.9-5.41-2.7-5.41s-2.7-0.9-2.7-9.91c0-5.41-0.9-9.91-1.8-9.91c-0.9,0-1.8-2.7-1.8-6.31c0-3.6-0.9-6.31-1.8-6.31c-0.9,0-1.8-3.6-1.8-7.21c0-3.6-0.9-7.21-1.8-7.21c-0.9,0-1.8-2.7-1.8-6.31c0-3.6-0.9-6.31-1.8-6.31c-0.9,0-1.8-1.8-1.8-3.6c0-1.8-0.9-3.6-1.8-3.6c-0.9,0-1.8-0.9-1.8-2.7c0-1.8-0.9-2.7-1.8-2.7c-0.9,0-1.8-0.9-1.8-1.8c0-0.9-0.9-1.8-2.7-1.8c-1.8,0-2.7-0.9-2.7-1.8c0-0.9-0.9-1.8-1.8-1.8c-0.9,0-1.8-0.9-1.8-1.8c0-0.9-0.9-1.8-1.8-1.8c-2.7,0-9.91-7.21-9.91-9.91c0-0.9-0.9-1.8-1.8-1.8c-0.9,0-1.8-0.9-1.8-1.8c0-1.8-5.41-5.41-9.01-5.41c-0.9,0-1.8-0.9-1.8-1.8c0-0.9-0.9-1.8-2.7-1.8c-1.8,0-2.7-0.9-2.7-2.7c0-1.8-0.9-2.7-2.7-2.7c-1.8,0-2.7-0.9-2.7-2.7c0-1.8-0.9-2.7-2.7-2.7c-1.8,0-2.7-0.9-2.7-2.7c0-1.8-0.9-2.7-2.7-2.7c-1.8,0-2.7-0.9-2.7-2.7c0-1.8-0.9-2.7-2.7-2.7c-1.8,0-2.7-0.9-2.7-2.7c0-1.8-0.9-2.7-3.6-2.7c-1.8,0-3.6-0.9-3.6-1.8c0-0.9-1.8-1.8-3.6-1.8c-1.8,0-3.6-0.9-3.6-1.8c0-0.9-1.8-1.8-3.6-1.8c-1.8,0-3.6-0.9-3.6-1.8c0-0.9-1.8-1.8-3.6-1.8c-1.8,0-3.6-0.9-3.6-1.8c0-0.9-1.8-1.8-4.5-1.8c-2.7,0-4.5-0.9-4.5-1.8c0-0.9-2.7-1.8-6.31-1.8c-3.6,0-6.31-0.9-6.31-1.8c0-0.9-2.7-1.8-6.31-1.8c-3.6,0-6.31-0.9-6.31-1.8c0-0.9-3.6-1.8-8.11-1.8s-8.11-0.9-8.11-1.8c0-0.9-3.6-1.8-8.11-1.8s-8.11-0.9-8.11-1.8c0-0.9-5.41-1.8-12.61-1.8c-7.21,0-12.61-0.9-12.61-1.8c0-0.9-6.31-1.8-14.42-1.8c-11.71,0-14.42-0.9-16.22-2.7c-1.8-2.7-0.9-2.7,9.01-2.7c6.31,0,9.91,0.9,9.91,1.8c0,0.9,3.6,1.8,8.11,1.8s8.11,0.9,8.11,1.8c0,0.9,3.6,1.8,8.11,1.8s8.11,0.9,8.11,1.8c0,0.9,3.6,1.8,8.11,1.8s8.11,0.9,8.11,1.8c0,0.9,2.7,1.8,6.31,1.8c3.6,0,6.31,0.9,6.31,1.8c0,0.9,2.7,1.8,5.41,1.8c2.7,0,5.41,0.9,5.41,1.8c0,0.9,1.8,1.8,4.5,1.8c2.7,0,4.5,0.9,4.5,1.8c0,0.9,1.8,1.8,3.6,1.8c1.8,0,3.6,0.9,3.6,1.8c0,0.9,1.8,1.8,3.6,1.8c1.8,0,3.6,0.9,3.6,1.8c0,0.9,0.9,1.8,2.7,1.8c1.8,0,2.7,0.9,2.7,2.7c0,1.8,0.9,2.7,2.7,2.7c1.8,0,2.7,0.9,2.7,1.8c0,0.9,0.9,1.8,1.8,1.8c0.9,0,1.8,0.9,1.8,1.8c0,0.9,0.9,1.8,1.8,1.8c0.9,0,1.8,0.9,1.8,1.8c0,1.8,9.91,10.81,11.71,10.81c0.9,0,1.8,0.9,1.8,1.8c0,0.9,0.9,1.8,1.8,1.8c0.9,0,1.8,0.9,1.8,1.8c0,0.9,0.9,1.8,1.8,1.8c0.9,0,1.8,0.9,1.8,1.8c0,0.9,0.9,1.8,1.8,1.8c0.9,0,1.8,0.9,1.8,2.7c0,1.8,0.9,2.7,1.8,2.7c0.9,0,1.8,0.9,1.8,1.8c0,0.9,0.9,1.8,1.8,1.8c0.9,0,1.8,1.8,1.8,3.6c0,1.8,0.9,3.6,1.8,3.6c0.9,0,1.8,0.9,1.8,1.8c0,0.9,0.9,1.8,1.8,1.8s1.8,1.8,1.8,3.6c0,1.8,0.9,3.6,1.8,3.6c0.9,0,1.8,1.8,1.8,3.6c0,1.8,0.9,3.6,1.8,3.6c0.9,0,1.8,1.8,1.8,3.6c0,1.8,0.9,3.6,1.8,3.6c0.9,0,1.8,1.8,1.8,4.5c0,2.7,0.9,4.5,1.8,4.5c0.9,0,1.8,1.8,1.8,4.5c0,2.7,0.9,4.5,1.8,4.5c0.9,0,1.8,2.7,1.8,6.31c0,3.6,0.9,6.31,1.8,6.31c0.9,0,1.8,2.7,1.8,6.31c0,3.6,0.9,6.31,1.8,6.31c0.9,0,1.8,3.6,1.8,9.01c0,6.31,0.9,9.01,2.7,9.91c1.8,0.9,2.7,3.6,2.7,9.01c0,4.5,0.9,9.01,1.8,9.91c0.9,0.9,1.8,8.11,1.8,15.32c0,9.01,0.9,14.42,2.7,16.22c1.8,1.8,2.7,5.41,2.7,12.61c0,7.21,0.9,10.81,2.7,12.61c1.8,1.8,2.7,5.41,2.7,9.91c0,3.6,0.9,7.21,1.8,8.11c0.9,0.9,1.8,5.41,1.8,9.91c0,4.5,0.9,9.01,1.8,9.91c0.9,0.9,1.8,3.6,1.8,6.31c0,2.7,0.9,5.41,1.8,6.31c0.9,0.9,1.8,3.6,1.8,6.31c0,2.7,0.9,5.41,1.8,6.31c0.9,0.9,1.8,3.6,1.8,6.31c0,2.7,0.9,5.41,1.8,6.31c0.9,0.9,1.8,2.7,1.8,4.5c0,1.8,0.9,4.5,1.8,5.41c0.9,0.9,1.8,2.7,1.8,4.5c0,1.8,0.9,4.5,1.8,5.41c0.9,0.9,1.8,2.7,1.8,4.5c0,1.8,0.9,3.6,1.8,3.6c0.9,0,1.8,1.8,1.8,3.6c0,1.8,0.9,3.6,1.8,3.6c0.9,0,1.8,0.9,1.8,1.8c0,0.9,0.9,1.8,2.7,1.8c1.8,0.9,3.6,2.7,4.5,4.5c0.9,1.8,1.8,2.7,2.7,2.7c0.9,0,1.8,0.9,1.8,1.8c0,0.9,0.9,1.8,1.8,1.8c1.8,0,9.91,7.21,9.91,9.01c0,0.9,0.9,1.8,1.8,1.8c0.9,0,1.8,0.9,1.8,1.8c0,0.9,0.9,1.8,1.8,1.8c0.9,0,1.8,0.9,1.8,1.8c0,0.9,0.9,1.8,1.8,1.8c0.9,0,1.8,0.9,1.8,1.8c0,0.9,0.9,1.8,1.8,1.8c0.9,0,1.8,0.9,1.8,1.8c0,0.9,0.9,1.8,2.7,1.8c1.8,0,2.7,0.9,2.7,1.8c0,0.9,0.9,1.8,1.8,1.8c0.9,0,1.8,0.9,1.8,1.8c0,0.9,0.9,1.8,2.7,1.8c1.8,0,2.7,0.9,2.7,1.8c0,0.9,0.9,1.8,1.8,1.8c0.9,0,1.8,0.9,1.8,1.8c0,0.9,0.9,1.8,2.7,1.8c1.8,0,2.7,0.9,2.7,1.8c0,0.9,1.8,1.8,3.6,1.8c1.8,0,3.6,0.9,3.6,1.8c0,0.9,0.9,1.8,2.7,1.8c1.8,0,2.7,0.9,2.7,1.8c0,0.9,1.8,1.8,3.6,1.8c1.8,0,3.6,0.9,3.6,1.8c0,0.9,1.8,1.8,3.6,1.8c1.8,0,3.6,0.9,3.6,1.8c0,0.9,1.8,1.8,4.5,1.8c2.7,0,4.5,0.9,4.5,1.8c0,0.9,2.7,1.8,6.31,1.8c3.6,0,6.31,0.9,6.31,1.8c0,0.9,2.7,1.8,5.41,1.8c2.7,0,5.41,0.9,5.41,1.8c0,0.9,3.6,1.8,8.11,1.8c4.5,0,8.11,0.9,8.11,1.8c0,0.9,4.5,1.8,9.91,1.8c5.41,0,9.91,0.9,9.91,1.8c0,0.9,8.11,1.8,18.02,1.8c9.91,0,18.02,0.9,18.02,1.8c0,3.6,56.75,1.8,59.45-1.8c0.9-0.9,7.21-1.8,14.42-1.8c7.21,0,13.51-0.9,14.42-1.8c0.9-0.9,5.41-1.8,9.91-1.8c4.5,0,9.01-0.9,9.91-1.8c0.9-0.9,5.41-1.8,9.91-1.8c4.5,0,9.01-0.9,9.91-1.8c0.9-0.9,5.41-1.8,10.81-1.8c6.31,0,9.01,0.9,9.01,1.8c0,0.9-1.8,1.8-3.6,1.8s-3.6,0.9-3.6,1.8c0,0.9-4.5,1.8-9.91,1.8c-5.41,0-9.91,0.9-9.91,1.8c0,0.9-5.41,1.8-12.61,1.8c-7.21,0-12.61,0.9-12.61,1.8c0,0.9-7.21,1.8-15.32,1.8c-8.11,0-15.32,0.9-15.32,1.8c0,0.9-9.01,1.8-19.82,1.8c-10.81,0-19.82,0.9-19.82,1.8c0,0.9-7.21,1.8-16.22,1.8c-14.42,0-16.22-0.9-16.22-1.8c0-0.9,2.7-1.8,5.41-1.8c2.7,0,5.41-0.9,5.41-1.8c0-0.9-0.9-1.8-1.8-1.8c-0.9,0-1.8-0.9-1.8-1.8c0-0.9,0.9-1.8,1.8-1.8c0.9,0,1.8-0.9,1.8-1.8c0-0.9-0.9-1.8-2.7-1.8c-1.8,0-2.7-0.9-2.7-1.8c0-0.9,0.9-1.8,1.8-1.8c0.9,0,1.8-0.9,1.8-1.8c0-0.9-0.9-1.8-2.7-1.8c-1.8,0-2.7-0.9-2.7-1.8c0-0.9-0.9-1.8-1.8-1.8c-0.9,0-1.8-0.9-1.8-1.8c0-0.9-0.9-1.8-2.7-1.8c-1.8,0-2.7-0.9-2.7-1.8c0-0.9-0.9-1.8-2.7-1.8c-1.8,0-2.7-0.9-2.7-2.7c0-1.8-0.9-2.7-3.6-2.7c-1.8,0-3.6-0.9-3.6-1.8c0-0.9-0.9-1.8-2.7-1.8c-1.8,0-2.7-0.9-2.7-2.7c0-1.8-0.9-2.7-1.8-2.7s-1.8-0.9-1.8-1.8c0-0.9-0.9-1.8-1.8-1.8c-0.9,0-1.8-0.9-1.8-1.8c0-0.9-0.9-1.8-1.8-1.8c-0.9,0-1.8-0.9-1.8-1.8c0-0.9-0.9-1.8-1.8-1.8c-0.9,0-1.8-0.9-1.8-1.8c0-0.9-0.9-1.8-1.8-1.8c-0.9,0-1.8-0.9-1.8-1.8c0-0.9-0.9-1.8-1.8-1.8c-0.9,0-1.8-0.9-1.8-1.8c0-0.9-0.9-1.8-1.8-1.8c-0.9,0-1.8-0.9-1.8-1.8c0-0.9-0.9-1.8-1.8-1.8c-0.9,0-1.8-1.8-1.8-3.6c0-1.8-0.9-3.6-1.8-3.6c-0.9,0-1.8-0.9-1.8-1.8c0-0.9-0.9-1.8-1.8-1.8c-0.9,0-1.8-1.8-1.8-3.6c0-1.8-0.9-3.6-1.8-3.6c-0.9,0-1.8-1.8-1.8-3.6c0-1.8-0.9-3.6-1.8-3.6c-0.9,0-1.8-1.8-1.8-3.6c0-1.8-0.9-3.6-1.8-3.6c-0.9,0-1.8-1.8-1.8-3.6c0-1.8-0.9-3.6-1.8-3.6c-0.9,0-1.8-1.8-1.8-3.6c0-1.8-0.9-3.6-1.8-3.6c-0.9,0-1.8-1.8-1.8-4.5c0-2.7-0.9-4.5-1.8-4.5c-0.9,0-1.8-2.7-1.8-5.41c0-3.6-0.9-5.41-1.8-5.41c-0.9,0-1.8-2.7-1.8-6.31c0-3.6-0.9-6.31-1.8-6.31c-0.9,0-1.8-2.7-1.8-6.31c0-3.6-0.9-6.31-1.8-7.21c-0.9-0.9-1.8-5.41-1.8-9.91c0-4.5-0.9-9.01-1.8-9.91c-0.9-0.9-1.8-6.31-1.8-11.71c0-5.41-0.9-10.81-1.8-11.71c-0.9-0.9-1.8-8.11-1.8-16.22c0-8.11-0.9-15.32-1.8-16.22c-0.9-0.9-1.8-9.91-1.8-19.82c0-9.91-0.9-18.92-1.8-19.82c-0.9-0.9-1.8-9.91-1.8-19.82c0-9.91-0.9-18.92-1.8-19.82c-1.8-1.8-1.8-5.41-0.9-14.42c0.9-6.31,2.7-17.12,3.6-23.42c0.9-6.31,2.7-15.32,3.6-19.82c0.9-4.5,2.7-11.71,3.6-16.22c0.9-4.5,2.7-10.81,3.6-13.51c0.9-2.7,2.7-7.21,3.6-9.91c0.9-2.7,2.7-7.21,3.6-9.91c1.8-2.7,3.6-7.21,4.5-9.91c0.9-2.7,2.7-6.31,3.6-8.11c1.8-1.8,3.6-5.41,4.5-8.11c0.9-2.7,3.6-7.21,5.41-9.91c1.8-2.7,4.5-7.21,6.31-9.91c1.8-2.7,4.5-7.21,6.31-9.01c1.8-2.7,4.5-6.31,5.41-8.11c1.8-1.8,5.41-6.31,9.01-9.91c3.6-3.6,9.01-9.01,11.71-11.71c2.7-2.7,7.21-6.31,9.91-9.01c2.7-2.7,6.31-5.41,9.01-6.31c2.7-0.9,6.31-3.6,8.11-5.41c2.7-2.7,5.41-4.5,7.21-4.5c1.8,0,4.5-1.8,6.31-3.6c1.8-1.8,5.41-4.5,8.11-5.41c2.7-0.9,6.31-2.7,8.11-3.6c1.8-0.9,6.31-2.7,9.91-3.6c3.6-0.9,9.01-2.7,11.71-3.6c2.7-0.9,9.01-2.7,13.51-3.6c4.5-0.9,11.71-1.8,15.32-1.8c3.6,0,9.91-0.9,13.51-1.8c5.41-0.9,8.11-0.9,11.71,0.9c2.7,0.9,9.01,1.8,14.42,1.8c5.41,0,11.71,0.9,13.51,1.8c2.7,0.9,7.21,1.8,10.81,1.8c3.6,0,9.01,0.9,12.61,1.8c3.6,0.9,9.01,2.7,11.71,3.6c9.91,3.6,14.42,5.41,18.02,8.11c1.8,1.8,4.5,2.7,5.41,2.7c2.7,0,17.12,9.01,23.42,14.42c1.8,1.8,6.31,5.41,9.91,9.01c3.6,3.6,8.11,8.11,10.81,10.81c2.7,2.7,6.31,7.21,9.01,10.81c2.7,3.6,6.31,9.01,7.21,11.71c1.8,2.7,4.5,7.21,5.41,9.91c1.8,2.7,3.6,7.21,4.5,9.91c0.9,2.7,2.7,7.21,3.6,9.91c0.9,2.7,2.7,8.11,3.6,12.61c0.9,3.6,2.7,10.81,3.6,14.42c0.9,4.5,2.7,12.61,3.6,18.02c0.9,6.31,1.8,14.42,1.8,18.92s0.9,14.42,1.8,22.52c0.9,9.01,1.8,18.92,1.8,23.42c0,3.6-0.9,9.01-2.7,11.71c-0.9,2.7-5.41,5.41-9.01,5.41c-3.6,0-9.01,0.9-11.71,1.8c-2.7,0.9-8.11,2.7-12.61,3.6c-3.6,0.9-9.01,1.8-11.71,1.8c-2.7,0-7.21,0.9-9.91,1.8c-2.7,0.9-9.01,1.8-13.51,1.8c-5.41,0-10.81,0.9-12.61,1.8c-1.8,0.9-9.01,1.8-16.22,1.8c-7.21,0-14.42,0.9-16.22,1.8c-1.8,0.9-11.71,1.8-21.62,1.8c-9.91,0-19.82,0.9-21.62,1.8c-2.7,0.9-8.11,1.8-13.51,1.8c-4.5,0-9.91,0.9-11.71,1.8c-1.8,0.9-7.21,1.8-11.71,1.8c-4.5,0-9.91,0.9-11.71,1.8c-1.8,0.9-6.31,1.8-9.91,1.8s-8.11,0.9-9.91,1.8c-1.8,0.9-6.31,1.8-9.91,1.8c-3.6,0-8.11,0.9-9.91,1.8c-1.8,0.9-5.41,1.8-7.21,1.8c-1.8,0-4.5,0.9-6.31,1.8c-1.8,0.9-5.41,1.8-8.11,1.8c-2.7,0-6.31,0.9-7.21,1.8c-0.9,0.9-6.31,2.7-12.61,3.6c-5.41,0.9-13.51,2.7-18.02,4.5c-4.5,1.8-11.71,3.6-16.22,4.5c-4.5,0.9-9.01,2.7-9.91,3.6c-0.9,0.9-4.5,1.8-7.21,1.8c-2.7,0-6.31,0.9-7.21,1.8c-0.9,0.9-5.41,2.7-9.91,3.6c-4.5,0.9-9.01,2.7-9.91,3.6c-0.9,0.9-3.6,1.8-5.41,1.8c-1.8,0-4.5,0.9-5.41,1.8c-0.9,0.9-4.5,2.7-7.21,3.6c-2.7,0.9-5.41,2.7-6.31,3.6c-0.9,0.9-3.6,1.8-5.41,1.8c-1.8,0-4.5,0.9-5.41,1.8c-0.9,0.9-3.6,2.7-5.41,3.6c-1.8,0.9-4.5,2.7-5.41,3.6c-0.9,0.9-3.6,1.8-5.41,2.7c-1.8,0.9-4.5,2.7-5.41,4.5c-1.8,1.8-3.6,2.7-5.41,2.7c-1.8,0-4.5,1.8-6.31,3.6c-1.8,1.8-4.5,3.6-6.31,3.6c-1.8,0-4.5,1.8-6.31,3.6c-1.8,1.8-4.5,3.6-5.41,3.6c-2.7,0-10.81,7.21-13.51,11.71c-0.9,1.8-3.6,4.5-5.41,5.41c-1.8,0.9-7.21,5.41-11.71,9.91c-4.5,4.5-9.91,9.01-11.71,9.91c-1.8,0.9-4.5,3.6-5.41,6.31c-0.9,2.7-3.6,5.41-6.31,6.31c-2.7,0.9-5.41,3.6-6.31,6.31c-0.9,2.7-3.6,5.41-5.41,6.31c-1.8,0.9-4.5,3.6-5.41,6.31c-0.9,2.7-3.6,6.31-5.41,8.11c-1.8,1.8-4.5,6.31-5.41,9.91c-0.9,3.6-3.6,8.11-5.41,10.81c-1.8,2.7-3.6,7.21-4.5,9.91c-0.9,2.7-2.7,7.21-3.6,9.91c-0.9,2.7-2.7,9.01-3.6,14.42c-1.8,5.41-3.6,12.61-5.41,17.12c-1.8,4.5-2.7,11.71-2.7,18.02c0,6.31-0.9,14.42-1.8,18.02c-1.8,5.41-1.8,8.11,0,11.71c0.9,2.7,2.7,9.01,3.6,13.51c0.9,4.5,3.6,11.71,5.41,15.32c1.8,3.6,4.5,9.01,5.41,11.71c1.8,2.7,4.5,7.21,6.31,9.91c1.8,2.7,5.41,7.21,9.01,9.91c3.6,2.7,8.11,6.31,9.91,8.11c1.8,1.8,6.31,4.5,9.91,6.31c3.6,1.8,9.01,4.5,12.61,6.31c3.6,1.8,10.81,4.5,16.22,5.41c5.41,0.9,13.51,1.8,18.02,1.8c4.5,0,12.61-0.9,18.02-1.8c5.41-0.9,12.61-2.7,15.32-3.6c2.7-0.9,7.21-2.7,9.91-3.6c2.7-0.9,7.21-2.7,10.81-4.5c3.6-1.8,9.01-4.5,11.71-6.31c2.7-1.8,7.21-5.41,9.91-7.21c2.7-1.8,6.31-5.41,9.01-9.01c2.7-2.7,6.31-7.21,8.11-9.91c1.8-2.7,4.5-7.21,6.31-9.91c1.8-2.7,3.6-7.21,4.5-9.91c0.9-2.7,2.7-8.11,3.6-12.61c1.8-4.5,3.6-13.51,4.5-21.62c0.9-9.01,0.9-16.22,0-19.82c-0.9-3.6-2.7-8.11-4.5-10.81c-1.8-2.7-3.6-6.31-4.5-7.21c-0.9-0.9-3.6-2.7-6.31-3.6c-2.7-0.9-7.21-3.6-9.01-5.41c-1.8-1.8-5.41-4.5-7.21-5.41c-1.8-0.9-5.41-3.6-8.11-5.41c-2.7-1.8-6.31-3.6-8.11-3.6c-1.8,0-4.5-1.8-6.31-3.6c-1.8-1.8-3.6-3.6-4.5-3.6c-0.9,0-2.7-0.9-3.6-1.8c-0.9-0.9-3.6-2.7-6.31-3.6c-2.7-0.9-5.41-2.7-6.31-3.6c-1.8-1.8-10.81-6.31-12.61-6.31c-0.9,0-1.8-0.9-1.8-1.8c0-0.9-0.9-1.8-2.7-1.8c-1.8,0-2.7-0.9-2.7-1.8c0-0.9-0.9-1.8-1.8-1.8c-0.9,0-1.8-0.9-1.8-1.8c0-0.9,0.9-1.8,1.8-1.8c0.9,0,1.8,0.9,1.8,1.8c0,0.9,0.9,1.8,2.7,1.8c1.8,0,2.7-0.9,2.7-1.8c0-0.9,0.9-1.8,1.8-1.8c0.9,0,1.8-0.9,1.8-1.8c0-0.9,0.9-1.8,1.8-1.8c0.9,0,1.8-0.9,1.8-1.8c0-0.9,0.9-1.8,1.8-1.8c0.9,0,1.8-0.9,1.8-1.8c0-0.9,0.9-1.8,1.8-1.8c1.8,0,7.21-3.6,9.01-5.41c0.9-0.9,2.7-1.8,3.6-1.8c1.8,0,7.21-3.6,10.81-7.21c0.9-0.9,2.7-1.8,3.6-1.8c0.9,0,2.7-0.9,3.6-1.8c0.9-0.9,2.7-1.8,3.6-1.8c0.9,0,2.7-0.9,3.6-1.8c0.9-0.9,2.7-1.8,3.6-1.8c0.9,0,1.8-0.9,1.8-1.8c0-0.9,0.9-1.8,1.8-1.8c0.9,0,1.8-0.9,1.8-1.8c0-0.9,0.9-1.8,2.7-1.8c1.8,0,2.7-0.9,2.7-1.8c0-0.9,1.8-1.8,3.6-1.8c1.8,0,3.6-0.9,3.6-1.8c0-0.9,0.9-1.8,2.7-1.8c1.8,0,2.7-0.9,2.7-1.8c0-0.9,0.9-1.8,1.8-1.8c0.9,0,1.8,0.9,1.8,1.8c0,0.9,0.9,1.8,1.8,1.8c0.9,0,1.8,0.9,1.8,1.8c0,0.9,0.9,1.8,1.8,1.8c0.9,0,1.8,0.9,1.8,1.8c0,0.9,0.9,1.8,2.7,1.8c1.8,0,2.7,0.9,2.7,1.8c0,0.9,0.9,1.8,1.8,1.8c0.9,0,1.8,0.9,1.8,1.8c0,0.9,1.8,1.8,3.6,1.8c1.8,0,3.6,0.9,3.6,1.8c0,0.9,1.8,1.8,3.6,1.8c1.8,0,3.6,0.9,3.6,1.8c0,0.9,1.8,1.8,3.6,1.8c1.8,0,3.6,0.9,3.6,1.8c0,0.9,0.9,1.8,1.8,1.8c0.9,0,1.8-0.9,1.8-1.8c0-0.9-0.9-1.8-1.8-1.8c-0.9,0-1.8-0.9-1.8-1.8c0-0.9-0.9-1.8-1.8-1.8c-0.9,0-1.8-0.9-1.8-1.8c0-0.9-0.9-1.8-1.8-1.8c-0.9,0-1.8-0.9-1.8-1.8c0-0.9-0.9-1.8-2.7-1.8c-1.8,0-2.7-0.9-2.7-1.8c0-0.9-0.9-1.8-1.8-1.8c-0.9,0-1.8-0.9-1.8-1.8c0-0.9-0.9-1.8-1.8-1.8c-0.9,0-1.8-0.9-1.8-1.8c0-0.9-0.9-1.8-1.8-1.8c-0.9,0-1.8-0.9-1.8-1.8c0-0.9-0.9-1.8-2.7-1.8c-1.8,0-2.7-0.9-2.7-1.8c0-0.9-0.9-1.8-1.8-1.8c-0.9,0-1.8-0.9-1.8-1.8c0-0.9-0.9-1.8-1.8-1.8c-0.9,0-1.8-0.9-1.8-1.8c0-0.9-0.9-1.8-1.8-1.8c-0.9,0-1.8-0.9-1.8-1.8c0-0.9-0.9-1.8-1.8-1.8c-0.9,0-1.8-0.9-1.8-1.8c0-0.9-0.9-1.8-1.8-1.8c-0.9,0-1.8-0.9-1.8-1.8c0-0.9-0.9-1.8-1.8-1.8c-0.9,0-1.8-0.9-1.8-1.8c0-0.9-0.9-1.8-1.8-1.8c-0.9,0-1.8-0.9-1.8-1.8c0-0.9-0.9-1.8-1.8-1.8c-0.9,0-1.8-0.9-1.8-1.8c0-0.9-0.9-1.8-1.8-1.8c-0.9,0-1.8-0.9-1.8-1.8c0-0.9-0.9-1.8-1.8-1.8c-0.9,0-1.8-0.9-1.8-1.8c0-0.9-0.9-1.8-2.7-1.8c-1.8,0-2.7-0.9-2.7-2.7c0-1.8-0.9-2.7-1.8-2.7c-0.9,0-1.8-0.9-1.8-1.8c0-0.9-0.9-1.8-1.8-1.8c-0.9,0-1.8-0.9-1.8-1.8c0-0.9-0.9-1.8-1.8-1.8c-0.9,0-1.8-0.9-1.8-1.8c0-0.9-0.9-1.8-1.8-1.8c-0.9,0-1.8-0.9-1.8-1.8c0-0.9-0.9-1.8-1.8-1.8c-0.9,0-1.8-0.9-1.8-1.8c0-0.9-0.9-1.8-1.8-1.8c-0.9,0-1.8-0.9-1.8-1.8c0-0.9-0.9-1.8-1.8-1.8c-0.9,0-1.8-0.9-1.8-1.8c0-0.9-0.9-1.8-1.8-1.8c-0.9,0-1.8-0.9-1.8-1.8c0-0.9-0.9-1.8-1.8-1.8c-0.9,0-1.8-0.9-1.8-1.8c0-0.9-0.9-1.8-1.8-1.8c-0.9,0-1.8-0.9-1.8-1.8c0-0.9-0.9-1.8-1.8-1.8c-0.9,0-1.8,0.9-1.8,1.8c0,0.9-0.9,1.8-1.8,1.8c-0.9,0-1.8,0.9-1.8,1.8c0,0.9-0.9,1.8-1.8,1.8c-0.9,0-1.8,0.9-1.8,1.8c0,0.9-0.9,1.8-1.8,1.8c-0.9,0-1.8,0.9-1.8,1.8c0,0.9-0.9,1.8-1.8,1.8c-2.7,0-9.91,7.21-9.91,9.91c0,0.9-0.9,1.8-1.8,1.8c-0.9,0-1.8,0.9-1.8,1.8c0,0.9-0.9,1.8-1.8,1.8c-0.9,0-1.8,0.9-1.8,1.8c0,0.9-0.9,1.8-1.8,1.8c-0.9,0-1.8,0.9-1.8,1.8c0,0.9-0.9,1.8-1.8,1.8c-0.9,0-1.8,0.9-1.8,1.8c0,0.9-0.9,1.8-1.8,1.8c-0.9,0-1.8,0.9-1.8,1.8c0,0.9-0.9,1.8-1.8,1.8c-0.9,0-1.8,0.9-1.8,1.8c0,0.9-0.9,1.8-2.7,1.8c-1.8,0-2.7,0.9-2.7,1.8c0,0.9-0.9,1.8-1.8,1.8c-0.9,0-1.8,0.9-1.8,1.8c0,0.9-0.9,1.8-1.8,1.8c-0.9,0-1.8,0.9-1.8,1.8c0,0.9-0.9,1.8-1.8,1.8c-0.9,0-1.8,0.9-1.8,1.8c0,0.9-0.9,1.8-1.8,1.8c-0.9,0-1.8,0.9-1.8,1.8c0,0.9-0.9,1.8-2.7,1.8c-1.8,0-2.7,0.9-2.7,1.8c0,0.9-0.9,1.8-1.8,1.8c-0.9,0-1.8,0.9-1.8,1.8c0,0.9-0.9,1.8-1.8,1.8c-0.9,0-1.8,0.9-1.8,1.8c0,0.9-0.9,1.8-2.7,1.8c-1.8,0-2.7,0.9-2.7,1.8c0,0.9-0.9,1.8-1.8,1.8c-0.9,0-1.8,0.9-1.8,1.8c0,0.9-1.8,1.8-3.6,1.8c-1.8,0-3.6,0.9-3.6,1.8c0,0.9-0.9,1.8-1.8,1.8c-0.9,0-1.8,0.9-1.8,1.8c0,0.9-1.8,1.8-3.6,1.8c-1.8,0-3.6,0.9-3.6,1.8c0,0.9-1.8,1.8-3.6,1.8c-1.8,0-3.6,0.9-3.6,1.8c0,0.9-1.8,1.8-3.6,1.8c-1.8,0-3.6,0.9-3.6,1.8c0,0.9-1.8,1.8-3.6,1.8c-1.8,0-3.6,0.9-3.6,1.8c0,0.9-2.7,1.8-5.41,1.8c-2.7,0-5.41,0.9-5.41,1.8c0,0.9-1.8,1.8-4.5,1.8c-2.7,0-4.5,0.9-4.5,1.8c0,0.9-2.7,1.8-5.41,1.8c-2.7,0-5.41,0.9-5.41,1.8c0,0.9-2.7,1.8-6.31,1.8c-3.6,0-6.31,0.9-6.31,1.8c0,0.9-3.6,1.8-8.11,1.8c-4.5,0-8.11,0.9-8.11,1.8c0,0.9-4.5,1.8-9.91,1.8c-5.41,0-9.91,0.9-9.91,1.8c0,0.9-5.41,1.8-12.61,1.8c-8.11,0-12.61,0.9-12.61,1.8c0,0.9-9.01,1.8-19.82,1.8c-16.22,0-19.82-0.9-19.82-1.8c0-0.9,3.6-1.8,9.01-1.8c4.5,0,9.01-0.9,9.01-1.8c0-0.9,3.6-1.8,9.01-1.8c4.5,0,9.01-0.9,9.01-1.8c0-0.9,3.6-1.8,8.11-1.8c4.5,0,8.11-0.9,8.11-1.8c0-0.9,2.7-1.8,6.31-1.8c3.6,0,6.31-0.9,6.31-1.8c0-0.9,2.7-1.8,5.41-1.8c2.7,0,5.41-0.9,5.41-1.8c0-0.9,1.8-1.8,3.6-1.8c1.8,0,3.6-0.9,3.6-1.8c0-0.9,1.8-1.8,3.6-1.8c1.8,0,3.6-0.9,3.6-1.8c0-0.9,1.8-1.8,3.6-1.8c1.8,0,3.6-0.9,3.6-1.8c0-0.9,0.9-1.8,2.7-1.8c1.8,0,2.7-0.9,2.7-1.8c0-0.9,0.9-1.8,1.8-1.8c0.9,0,1.8-0.9,1.8-1.8c0-0.9,0.9-1.8,1.8-1.8c0.9,0,1.8-0.9,1.8-1.8c0-0.9,0.9-1.8,2.7-1.8c1.8,0,2.7-0.9,2.7-1.8c0-0.9,0.9-1.8,1.8-1.8c0.9,0,1.8-0.9,1.8-1.8c0-0.9,0.9-1.8,1.8-1.8c0.9,0,1.8-0.9,1.8-1.8c0-0.9,0.9-1.8,1.8-1.8c0.9,0,1.8-0.9,1.8-1.8c0-0.9,0.9-1.8,1.8-1.8c0.9,0,1.8-0.9,1.8-1.8c0-0.9,0.9-1.8,1.8-1.8c0.9,0,1.8-0.9,1.8-1.8c0-0.9,0.9-1.8,1.8-1.8c0.9,0,1.8-0.9,1.8-1.8c0-0.9,0.9-1.8,1.8-1.8c0.9,0,1.8-0.9,1.8-1.8c0-0.9,0.9-1.8,1.8-1.8c0.9,0,1.8-0.9,1.8-1.8c0-0.9,0.9-1.8,1.8-1.8c0.9,0,1.8-0.9,1.8-1.8c0-0.9,0.9-1.8,1.8-1.8c0.9,0,1.8-0.9,1.8-1.8c0-0.9,0.9-1.8,1.8-1.8c0.9,0,1.8-0.9,1.8-1.8c0-0.9,0.9-1.8,1.8-1.8c0.9,0,1.8-0.9,1.8-1.8c0-0.9,0.9-1.8,1.8-1.8c0.9,0,1.8-0.9,1.8-1.8c0-0.9,0.9-1.8,1.8-1.8c0.9,0,1.8-0.9,1.8-1.8c0-0.9,0.9-1.8,1.8-1.8c0.9,0,1.8-0.9,1.8-1.8c0-0.9,0.9-1.8,1.8-1.8c0.9,0,1.8-0.9,1.8-1.8c0-0.9,0.9-1.8,1.8-1.8c0.9,0,1.8-0.9,1.8-1.8c0-0.9,0.9-1.8,1.8-1.8c0.9,0,1.8-0.9,1.8-1.8c0-0.9,0.9-1.8,1.8-1.8c0.9,0,1.8-0.9,1.8-1.8c0-0.9,0.9-1.8,1.8-1.8c0.9,0,1.8-0.9,1.8-1.8c0-0.9,0.9-1.8,1.8-1.8c0.9,0,1.8-0.9,1.8-1.8c0-0.9,0.9-1.8,1.8-1.8c0.9,0,1.8-0.9,1.8-1.8c0-0.9,0.9-1.8,1.8-1.8c0.9,0,1.8-0.9,1.8-1.8c0-0.9,0.9-1.8,1.8-1.8s1.8,0.9,1.8,1.8c0,0.9,0.9,1.8,1.8,1.8c0.9,0,1.8-0.9,1.8-1.8c0-0.9-0.9-1.8-1.8-1.8c-0.9,0-1.8-0.9-1.8-1.8c0-0.9-0.9-1.8-1.8-1.8c-1.8,0-1.8-0.9,0-5.41c0.9-2.7,2.7-6.31,3.6-7.21c0.9-0.9,2.7-4.5,3.6-8.11c1.8-3.6,3.6-7.21,4.5-8.11c1.8-0.9,4.5-4.5,5.41-8.11c0.9-3.6,2.7-6.31,3.6-6.31c0.9,0,1.8-0.9,1.8-1.8c0-0.9,0.9-1.8,1.8-1.8c0.9,0,1.8-0.9,1.8-1.8c0-0.9,0.9-1.8,2.7-1.8c1.8,0,2.7-0.9,2.7-1.8c0-0.9,0.9-1.8,1.8-1.8c0.9,0,1.8-0.9,1.8-1.8c0-0.9,0.9-1.8,1.8-1.8c0.9,0,1.8-0.9,1.8-1.8c0-0.9,0.9-1.8,2.7-1.8c1.8,0,2.7-0.9,2.7-1.8c0-0.9,0.9-1.8,1.8-1.8c0.9,0,1.8-0.9,1.8-1.8c0-0.9,0.9-1.8,2.7-1.8c1.8,0,2.7-0.9,2.7-1.8c0-0.9,1.8-1.8,3.6-1.8c1.8,0,3.6-0.9,3.6-1.8c0-0.9,0.9-1.8,2.7-1.8c1.8,0,2.7-0.9,2.7-1.8c0-0.9,0.9-1.8,1.8-1.8c0.9,0,1.8-0.9,1.8-1.8c0-0.9,0.9-1.8,2.7-1.8c1.8,0,2.7-0.9,2.7-1.8c0-0.9,0.9-1.8,1.8-1.8c0.9,0,1.8-0.9,1.8-1.8c0-0.9,1.8-1.8,3.6-1.8c1.8,0,3.6-0.9,3.6-1.8c0-0.9,0.9-1.8,1.8-1.8c0.9,0,1.8-0.9,1.8-1.8c0-0.9,0.9-1.8,2.7-1.8c1.8,0,2.7-0.9,2.7-1.8c0-0.9,0.9-1.8,1.8-1.8c0.9,0,1.8-0.9,1.8-1.8c0-0.9,0.9-1.8,1.8-1.8c0.9,0,1.8-0.9,1.8-1.8c0-0.9,0.9-1.8,1.8-1.8c0.9,0,1.8-0.9,1.8-1.8c0-0.9,0.9-1.8,1.8-1.8c0.9,0,1.8-0.9,1.8-1.8c0-0.9,0.9-1.8,2.7-1.8c1.8,0,2.7-0.9,2.7-1.8c0-0.9,0.9-1.8,1.8-1.8c0.9,0,1.8-0.9,1.8-1.8c0-0.9,0.9-1.8,1.8-1.8c0.9,0,1.8-0.9,1.8-1.8c0-0.9,0.9-1.8,1.8-1.8c0.9,0,1.8-0.9,1.8-1.8c0-0.9,0.9-1.8,1.8-1.8c0.9,0,1.8-0.9,1.8-1.8c0-0.9,0.9-1.8,1.8-1.8c0.9,0,1.8-0.9,1.8-1.8c0-0.9,0.9-1.8,1.8-1.8c0.9,0,1.8-0.9,1.8-1.8c0-0.9,0.9-1.8,1.8-1.8c0.9,0,1.8-0.9,1.8-1.8c0-0.9,0.9-1.8,1.8-1.8c0.9,0,1.8-0.9,1.8-1.8c0-0.9,0.9-1.8,1.8-1.8c0.9,0,1.8-0.9,1.8-1.8c0-0.9,0.9-1.8,1.8-1.8c0.9,0,1.8-0.9,1.8-1.8c0-0.9,0.9-1.8,1.8-1.8c0.9,0,1.8-0.9,1.8-1.8c0-0.9,0.9-1.8,1.8-1.8c0.9,0,1.8-0.9,1.8-1.8c0-0.9,0.9-1.8,1.8-1.8c0.9,0,1.8-0.9,1.8-1.8c0-0.9,0.9-1.8,1.8-1.8c0.9,0,1.8-0.9,1.8-1.8c0-0.9,0.9-1.8,1.8-1.8c0.9,0,1.8-0.9,1.8-1.8c0-0.9,0.9-1.8,2.7-1.8c1.8,0,2.7-0.9,2.7-1.8c0-0.9,0.9-1.8,1.8-1.8c0.9,0,1.8-0.9,1.8-1.8c0-0.9,0.9-1.8,1.8-1.8c0.9,0,1.8-0.9,1.8-1.8c0-0.9,0.9-1.8,1.8-1.8c0.9,0,1.8-0.9,1.8-1.8c0-0.9,0.9-1.8,2.7-1.8c1.8,0,2.7-0.9,2.7-1.8c0-0.9,0.9-1.8,1.8-1.8c0.9,0,1.8-0.9,1.8-1.8c0-0.9,0.9-1.8,2.7-1.8c1.8,0,2.7-0.9,2.7-1.8c0-0.9,1.8-1.8,3.6-1.8c1.8,0,3.6-0.9,3.6-1.8c0-0.9,1.8-1.8,3.6-1.8c1.8,0,3.6-0.9,3.6-1.8c0-0.9,1.8-1.8,3.6-1.8c1.8,0,3.6-0.9,3.6-1.8c0-0.9,2.7-1.8,5.41-1.8c2.7,0,5.41-0.9,5.41-1.8c0-0.9,2.7-1.8,6.31-1.8c3.6,0,6.31-0.9,6.31-1.8c0-0.9,3.6-1.8,9.01-1.8c5.41,0,9.01-0.9,9.01-1.8c0-0.9,5.41-1.8,11.71-1.8c6.31,0,11.71-0.9,11.71-2.7c0-1.8,0.9-1.8,9.91-0.9c9.01,0.9,9.91,0.9,9.91-0.9c0-1.8-0.9-1.8-8.11-0.9c-4.5,0.9-9.01,0.9-9.91,0c-0.9-0.9-5.41-1.8-10.81-1.8c-5.41,0-9.91-0.9-9.91-1.8c0-0.9-4.5-1.8-9.91-1.8c-5.41,0-9.91-0.9-9.91-1.8c0-0.9-3.6-1.8-9.01-1.8c-5.41,0-9.01-0.9-9.01-1.8c0-0.9-2.7-1.8-6.31-1.8c-3.6,0-6.31-0.9-6.31-1.8c0-0.9-2.7-1.8-6.31-1.8c-3.6,0-6.31-0.9-6.31-1.8c0-0.9-2.7-1.8-5.41-1.8c-2.7,0-5.41-0.9-5.41-1.8c0-0.9-1.8-1.8-4.5-1.8c-2.7,0-4.5-0.9-4.5-1.8c0-0.9-1.8-1.8-3.6-1.8c-1.8,0-3.6-0.9-3.6-1.8c0-0.9-1.8-1.8-3.6-1.8c-1.8,0-3.6-0.9-3.6-1.8c0-0.9-1.8-1.8-3.6-1.8c-1.8,0-3.6-0.9-3.6-1.8c0-0.9-0.9-1.8-2.7-1.8c-1.8,0-2.7-0.9-2.7-1.8c0-0.9-0.9-1.8-1.8-1.8c-0.9,0-1.8-0.9-1.8-1.8c0-0.9-0.9-1.8-2.7-1.8c-1.8,0-2.7-0.9-2.7-1.8c0-0.9-0.9-1.8-1.8-1.8c-0.9,0-1.8-0.9-1.8-1.8c0-0.9-0.9-1.8-1.8-1.8c-0.9,0-1.8-0.9-1.8-1.8c0-0.9-0.9-1.8-1.8-1.8c-0.9,0-1.8-0.9-1.8-1.8c0-0.9-0.9-1.8-1.8-1.8c-0.9,0-1.8-0.9-1.8-1.8c0-0.9-0.9-1.8-1.8-1.8c-0.9,0-1.8-0.9-1.8-1.8c0-0.9-0.9-1.8-1.8-1.8c-2.7,0-10.81-8.11-10.81-10.81c0-0.9-0.9-1.8-1.8-1.8c-0.9,0-1.8-0.9-1.8-1.8c0-0.9-0.9-1.8-1.8-1.8c-0.9,0-1.8-1.8-1.8-3.6c0-1.8-0.9-3.6-1.8-3.6c-0.9,0-1.8-0.9-1.8-1.8c0-0.9-0.9-1.8-1.8-1.8c-0.9,0-1.8-1.8-1.8-3.6c0-1.8-0.9-3.6-1.8-3.6c-0.9,0-1.8-0.9-1.8-2.7c0-1.8-0.9-2.7-1.8-2.7c-0.9,0-1.8-1.8-1.8-4.5c0-2.7-0.9-4.5-1.8-4.5c-0.9,0-1.8-2.7-1.8-5.41c0-3.6-0.9-5.41-1.8-5.41c-0.9,0-1.8-2.7-1.8-6.31c0-3.6-0.9-6.31-1.8-6.31c-0.9,0-1.8-3.6-1.8-8.11c0-4.5-0.9-8.11-1.8-9.01c-0.9-0.9-1.8-6.31-1.8-11.71c0-5.41-0.9-10.81-1.8-11.71c-0.9-0.9-1.8-7.21-1.8-13.51c0-6.31-0.9-12.61-1.8-13.51c-0.9-0.9-1.8-7.21-1.8-13.51c0-6.31-0.9-12.61-1.8-13.51c-0.9-0.9-1.8-8.11-1.8-15.32c0-7.21-0.9-14.42-1.8-16.22c-1.8-1.8-1.8-5.41-0.9-15.32c0.9-6.31,2.7-16.22,3.6-21.62c0.9-5.41,3.6-14.42,5.41-19.82c1.8-6.31,4.5-13.51,6.31-16.22c1.8-2.7,4.5-8.11,5.41-11.71c1.8-3.6,4.5-9.01,6.31-11.71c1.8-2.7,4.5-6.31,5.41-8.11c1.8-1.8,4.5-5.41,6.31-8.11c1.8-2.7,5.41-6.31,8.11-9.01c2.7-2.7,7.21-6.31,9.91-9.01c2.7-2.7,7.21-6.31,9.91-7.21c2.7-0.9,7.21-3.6,9.01-5.41c1.8-1.8,5.41-4.5,7.21-5.41c1.8-0.9,5.41-2.7,7.21-3.6c1.8-0.9,5.41-2.7,7.21-3.6c1.8-0.9,6.31-2.7,9.91-3.6c3.6-0.9,9.91-2.7,13.51-3.6c3.6-0.9,10.81-1.8,16.22-1.8c5.41,0,13.51,0.9,18.02,1.8c4.5,0.9,10.81,2.7,13.51,3.6c2.7,0.9,8.11,2.7,11.71,3.6c3.6,0.9,9.01,2.7,11.71,3.6c2.7,0.9,7.21,2.7,9.01,3.6c1.8,0.9,6.31,2.7,9.91,4.5c3.6,1.8,9.01,4.5,11.71,5.41c6.31,3.6,11.71,6.31,18.02,11.71c2.7,2.7,7.21,5.41,9.91,6.31c5.41,1.8,9.91,1.8,12.61-0.9c0.9-0.9,3.6-1.8,6.31-1.8c4.5,0,4.5,0,3.6,4.5c-0.9,2.7-2.7,5.41-3.6,5.41c-0.9,0-1.8,2.7-1.8,5.41c0,2.7-0.9,5.41-1.8,5.41c-0.9,0-1.8,1.8-1.8,4.5c0,2.7-0.9,4.5-1.8,4.5c-0.9,0-1.8,2.7-1.8,5.41c0,2.7-0.9,5.41-1.8,5.41c-0.9,0-1.8,1.8-1.8,3.6c0,1.8-0.9,3.6-1.8,3.6c-0.9,0-1.8,1.8-1.8,3.6c0,1.8-0.9,3.6-1.8,3.6c-0.9,0-1.8,1.8-1.8,3.6c0,1.8-0.9,3.6-1.8,3.6c-0.9,0-1.8,0.9-1.8,1.8c0,0.9-0.9,1.8-1.8,1.8c-0.9,0-1.8,0.9-1.8,1.8c0,0.9-0.9,1.8-1.8,1.8c-0.9,0-1.8,0.9-1.8,1.8c0,0.9-0.9,1.8-1.8,1.8c-0.9,0-1.8,0.9-1.8,1.8c0,1.8-5.41,6.31-9.01,7.21c-0.9,0-2.7,0.9-3.6,1.8c-0.9,0.9-2.7,1.8-3.6,1.8c-0.9,0-1.8,0.9-1.8,1.8c0,0.9-0.9,1.8-1.8,1.8c-0.9,0-1.8,0.9-1.8,1.8c0,0.9-0.9,1.8-1.8,1.8c-0.9,0-1.8,0.9-1.8,1.8c0,0.9-0.9,1.8-1.8,1.8c-0.9,0-1.8,0.9-1.8,1.8c0,0.9-0.9,1.8-1.8,1.8c-0.9,0-1.8,0.9-1.8,1.8c0,0.9-0.9,1.8-1.8,1.8c-0.9,0-1.8,0.9-1.8,1.8c0,0.9-0.9,1.8-1.8,1.8c-0.9,0-1.8,0.9-1.8,1.8c0,0.9-0.9,1.8-1.8,1.8c-0.9,0-1.8,0.9-1.8,1.8c0,0.9-0.9,1.8-1.8,1.8c-0.9,0-1.8,0.9-1.8,1.8c0,0.9-0.9,1.8-1.8,1.8c-0.9,0-1.8,0.9-1.8,1.8c0,0.9-0.9,1.8-1.8,1.8c-0.9,0-1.8,0.9-1.8,1.8c0,0.9-0.9,1.8-1.8,1.8c-0.9,0-1.8,0.9-1.8,1.8c0,0.9-0.9,1.8-1.8,1.8c-0.9,0-1.8,0.9-1.8,1.8c0,0.9-0.9,1.8-2.7,1.8c-1.8,0-2.7,0.9-2.7,1.8c0,0.9-0.9,1.8-1.8,1.8c-0.9,0-1.8,0.9-1.8,1.8c0,0.9-0.9,1.8-1.8,1.8c-0.9,0-1.8,0.9-1.8,1.8c0,0.9-0.9,1.8-2.7,1.8c-1.8,0-2.7,0.9-2.7,1.8c0,0.9-0.9,1.8-1.8,1.8c-0.9,0-1.8,0.9-1.8,1.8c0,0.9-0.9,1.8-2.7,1.8c-1.8,0-2.7,0.9-2.7,1.8c0,0.9-0.9,1.8-1.8,1.8c-0.9,0-1.8,0.9-1.8,1.8c0,0.9-0.9,1.8-2.7,1.8c-1.8,0-2.7,0.9-2.7,1.8c0,0.9-0.9,1.8-1.8,1.8c-0.9,0-1.8,0.9-1.8,1.8c0,0.9-0.9,1.8-2.7,1.8c-1.8,0-2.7,0.9-2.7,1.8c0,0.9-1.8,1.8-3.6,1.8c-1.8,0-3.6,0.9-3.6,1.8c0,0.9-0.9,1.8-1.8,1.8c-0.9,0-1.8,0.9-1.8,1.8c0,0.9-1.8,1.8-3.6,1.8c-1.8,0-3.6,0.9-3.6,1.8c0,0.9-1.8,1.8-3.6,1.8c-1.8,0-3.6,0.9-3.6,1.8c0,0.9-1.8,1.8-3.6,1.8c-1.8,0-3.6,0.9-3.6,1.8c0,0.9-1.8,1.8-4.5,1.8c-2.7,0-4.5,0.9-4.5,1.8c0,0.9-2.7,1.8-5.41,1.8c-2.7,0-5.41,0.9-5.41,1.8c0,0.9-2.7,1.8-6.31,1.8c-3.6,0-6.31,0.9-6.31,1.8c0,0.9-2.7,1.8-6.31,1.8c-3.6,0-6.31,0.9-6.31,1.8c0,0.9-3.6,1.8-8.11,1.8c-4.5,0-8.11,0.9-8.11,1.8c0,0.9-4.5,1.8-9.91,1.8c-5.41,0-9.91,0.9-9.91,1.8c0,0.9-4.5,1.8-9.91,1.8c-5.41,0-9.91,0.9-9.91,1.8c0,0.9-5.41,1.8-12.61,1.8c-7.21,0-12.61,0.9-12.61,1.8c0,0.9-6.31,1.8-14.42,1.8c-7.21,0-14.42,0.9-15.32,1.8c-0.9,0.9-9.91,1.8-19.82,1.8s-18.92,0.9-19.82,1.8c-0.9,0.9-9.01,1.8-18.02,1.8c-9.91,0-17.12,0.9-18.02,1.8c-0.9,0.9-7.21,1.8-13.51,1.8c-7.21,0-12.61,0.9-13.51,1.8c-0.9,0.9-5.41,1.8-9.91,1.8c-4.5,0-9.01,0.9-9.91,1.8c-0.9,0.9-5.41,1.8-9.91,1.8c-4.5,0-9.01,0.9-9.91,1.8c-0.9,0.9-4.5,1.8-8.11,1.8c-3.6,0-7.21,0.9-8.11,1.8c-0.9,0.9-4.5,1.8-7.21,1.8c-3.6,0-6.31,0.9-7.21,1.8c-0.9,0.9-3.6,1.8-6.31,1.8c-2.7,0-5.41,0.9-5.41,1.8c0,0.9-1.8,1.8-4.5,1.8c-2.7,0-4.5,0.9-4.5,1.8c0,0.9-1.8,1.8-3.6,1.8c-1.8,0-3.6,0.9-3.6,1.8c0,0.9-1.8,1.8-3.6,1.8c-1.8,0-3.6,0.9-3.6,1.8c0,0.9-0.9,1.8-2.7,1.8c-1.8,0-2.7,0.9-2.7,1.8c0,0.9-0.9,1.8-1.8,1.8c-0.9,0-1.8,0.9-1.8,1.8c0,0.9-0.9,1.8-2.7,1.8c-1.8,0-2.7,0.9-2.7,1.8c0,0.9-0.9,1.8-2.7,1.8c-1.8,0-2.7,0.9-2.7,1.8c0,0.9-0.9,1.8-1.8,1.8c-0.9,0-1.8,0.9-1.8,1.8c0,0.9-0.9,1.8-1.8,1.8c-0.9,0-1.8,0.9-1.8,1.8c0,0.9-0.9,1.8-1.8,1.8c-0.9,0-1.8,0.9-1.8,1.8c0,0.9-0.9,1.8-1.8,1.8c-0.9,0-1.8,0.9-1.8,1.8c0,0.9-0.9,1.8-1.8,1.8c-0.9,0-1.8,0.9-1.8,1.8c0,0.9-0.9,1.8-1.8,1.8c-0.9,0-1.8,0.9-1.8,1.8c0,0.9-0.9,1.8-1.8,1.8c-0.9,0-1.8,1.8-1.8,3.6c0,1.8-0.9,3.6-1.8,3.6c-0.9,0-1.8,0.9-1.8,1.8c0,0.9-0.9,1.8-1.8,1.8c-0.9,0-1.8,0.9-1.8,1.8c0,0.9-0.9,1.8-1.8,1.8c-0.9,0-1.8,0.9-1.8,1.8c0,0.9-0.9,1.8-1.8,1.8c-0.9,0-1.8,0.9-1.8,1.8c0,0.9-0.9,1.8-1.8,1.8c-0.9,0-1.8,0.9-1.8,1.8c0,0.9-0.9,1.8-1.8,1.8c-0.9,0-1.8,0.9-1.8,1.8c0,0.9-0.9,1.8-1.8,1.8c-0.9,0-1.8,0.9-1.8,1.8c0,0.9-0.9,1.8-1.8,1.8c-0.9,0-1.8,0.9-1.8,1.8c0,0.9-0.9,1.8-1.8,1.8c-1.8,0-7.21,5.41-7.21,7.21c0,0.9-0.9,1.8-1.8,1.8c-0.9,0-1.8,0.9-1.8,1.8c0,0.9-0.9,1.8-1.8,1.8c-0.9,0-1.8,0.9-1.8,1.8c0,0.9-0.9,1.8-1.8,1.8c-0.9,0-1.8,0.9-1.8,1.8c0,0.9-0.9,1.8-1.8,1.8c-0.9,0-1.8,0.9-1.8,1.8c0,0.9-0.9,1.8-1.8,1.8c-0.9,0-1.8,0.9-1.8,1.8c0,0.9-0.9,1.8-1.8,1.8c-0.9,0-1.8,0.9-1.8,1.8c0,0.9-0.9,1.8-1.8,1.8c-0.9,0-1.8,0.9-1.8,1.8c0,0.9-0.9,1.8-1.8,1.8c-0.9,0-1.8,0.9-1.8,1.8c0,0.9-0.9,1.8-2.7,1.8c-1.8,0-2.7,0.9-2.7,1.8c0,0.9-0.9,1.8-1.8,1.8c-0.9,0-1.8,0.9-1.8,1.8c0,0.9-0.9,1.8-1.8,1.8c-0.9,0-1.8,0.9-1.8,1.8c0,0.9-0.9,1.8-1.8,1.8c-0.9,0-1.8,0.9-1.8,1.8c0,0.9-0.9,1.8-2.7,1.8c-1.8,0-2.7,0.9-2.7,1.8c0,0.9-0.9,1.8-1.8,1.8c-0.9,0-1.8,0.9-1.8,1.8c0,0.9-0.9,1.8-2.7,1.8c-1.8,0-2.7,0.9-2.7,1.8c0,0.9-0.9,1.8-1.8,1.8c-0.9,0-1.8,0.9-1.8,1.8c0,0.9-0.9,1.8-2.7,1.8c-1.8,0-2.7,0.9-2.7,1.8c0,0.9-0.9,1.8-1.8,1.8c-0.9,0-1.8,0.9-1.8,1.8c0,0.9-0.9,1.8-1.8,1.8c-0.9,0-1.8,0.9-1.8,1.8c0,0.9-0.9,1.8-2.7,1.8c-1.8,0-2.7,0.9-2.7,1.8c0,0.9-0.9,1.8-1.8,1.8c-0.9,0-1.8,0.9-1.8,1.8c0,0.9-0.9,1.8-2.7,1.8c-1.8,0-2.7,0.9-2.7,1.8c0,0.9-1.8,1.8-3.6,1.8c-1.8,0-3.6,0.9-3.6,1.8c0,0.9-1.8,1.8-3.6,1.8c-1.8,0-3.6,0.9-3.6,1.8c0,0.9-1.8,1.8-3.6,1.8c-1.8,0-3.6,0.9-3.6,1.8c0,0.9-1.8,1.8-3.6,1.8c-1.8,0-3.6,0.9-3.6,1.8c0,0.9-1.8,1.8-3.6,1.8c-1.8,0-3.6,0.9-3.6,1.8c0,0.9-1.8,1.8-3.6,1.8c-1.8,0-3.6,0.9-3.6,1.8c0,0.9-1.8,1.8-4.5,1.8c-2.7,0-4.5,0.9-4.5,1.8c0,0.9-1.8,1.8-4.5,1.8c-2.7,0-4.5,0.9-4.5,1.8c0,0.9-2.7,1.8-5.41,1.8c-2.7,0-5.41,0.9-5.41,1.8c0,0.9-2.7,1.8-6.31,1.8c-3.6,0-6.31,0.9-6.31,1.8c0,0.9-2.7,1.8-6.31,1.8c-3.6,0-6.31,0.9-6.31,1.8c0,0.9-3.6,1.8-8.11,1.8c-4.5,0-8.11,0.9-8.11,1.8c0,0.9-3.6,1.8-9.01,1.8c-5.41,0-9.01,0.9-9.01,1.8c0,0.9-4.5,1.8-9.91,1.8c-5.41,0-9.91,0.9-9.91,1.8c0,0.9-5.41,1.8-11.71,1.8c-6.31,0-11.71,0.9-11.71,1.8c0,0.9-6.31,1.8-15.32,1.8c-8.11,0-15.32,0.9-15.32,1.8c0,0.9-7.21,1.8-15.32,1.8c-8.11,0-15.32,0.9-15.32,1.8c0,0.9-8.11,1.8-18.02,1.8s-18.02,0.9-18.02,1.8c0,0.9-9.91,1.8-22.52,1.8c-12.61,0-22.52,0.9-22.52,1.8c0,0.9-14.42,1.8-31.53,1.8C363.85,574.63,349.43,573.73,349.43,572.83z" fill="#000000"/>
</svg>
